<?xml version="1.0" encoding="UTF-8"?>
<svg id="Layer_2" data-name="Layer 2" xmlns="http://www.w3.org/2000/svg" xmlns:xlink="http://www.w3.org/1999/xlink" viewBox="0 0 31.14 29.95">
  <defs>
    <style>
      .cls-1 {
        fill: url(#linear-gradient);
      }
    </style>
    <linearGradient id="linear-gradient" x1="0" y1="14.98" x2="31.14" y2="14.98" gradientUnits="userSpaceOnUse">
      <stop offset="0" stop-color="#b17717"/>
      <stop offset=".09" stop-color="#f6d87c"/>
      <stop offset=".16" stop-color="#fcf9e0"/>
      <stop offset=".24" stop-color="#f6d87c"/>
      <stop offset=".52" stop-color="#d4a744"/>
      <stop offset=".7" stop-color="#f6d87c"/>
      <stop offset=".85" stop-color="#f6d87c"/>
      <stop offset=".93" stop-color="#d4a744"/>
      <stop offset="1" stop-color="#b17717"/>
    </linearGradient>
  </defs>
  <g id="Layer_1-2" data-name="Layer 1">
    <path class="cls-1" d="M30.99,3.51h0c-.1-.06-.22-.06-.31,0-.02.01-1.54,1.05-3.15.73-.89-.18-1.65-.75-2.26-1.69C23.74.16,23.09-.06,22.69.01c-.3.06-.43.33-.47.48-.01.05,0,.11.01.16.02.04,1.41,4.28-6.84,26.11C8.48,9.26,8.64,1.1,8.64,1.01c0-.09-.04-.18-.11-.24-.21-.17-.45-.23-.69-.19-.73.13-1.38,1.17-2.14,2.37-.21.34-.43.68-.65,1.01-.81,1.18-3.62.34-4.64-.09-.1-.04-.2-.02-.28.03-.08.06-.13.16-.12.27,1.35,11.89,13.32,23.91,14.46,25.02-.04.11-.09.23-.13.35-.04.13,0,.27.11.35.04.04.1.05.16.05.07,0,.14-.03.2-.08.63-.59,15.4-14.69,16.34-26.09.01-.11-.05-.22-.14-.27ZM14.62,28.55C12.61,26.53,2.14,15.54.64,4.59h0c1.11.38,3.88,1.17,4.88-.3.23-.33.45-.68.67-1.03.6-.95,1.27-2.02,1.75-2.1.04,0,.08,0,.13.01.01,1.28.37,9.7,6.94,26.18l-.38,1.2ZM15.36,28.47C23.58,7.04,23.01,1.49,22.81.58c.11.01.63.19,1.97,2.28.69,1.08,1.58,1.74,2.63,1.94,1.25.25,2.43-.2,3.07-.52-1.15,9.4-11.82,20.85-15.13,24.19ZM10.85,5.81h.01c.08.05.21.11.38.11.15,0,.32-.05.51-.18.76-.5,2.06-1.24,2.76-1.62.27.28.64.45,1.06.45s.79-.17,1.05-.45c.7.38,2.01,1.11,2.76,1.62.2.13.37.18.52.18.17,0,.3-.06.38-.11.82-.53.74-2.92.49-4.3-.08-.48-.36-.69-.58-.78-.86-.36-2.42.47-3.65,1.29-.26-.24-.6-.39-.99-.39s-.73.15-.99.39c-1.23-.82-2.79-1.66-3.65-1.29-.22.09-.49.3-.58.78-.24,1.38-.33,3.77.49,4.3ZM19.97,1.28c.08.03.19.1.23.34.31,1.77.13,3.47-.24,3.72-.02.01-.08.05-.25-.06-.76-.51-2.06-1.24-2.77-1.63.06-.16.1-.34.1-.52,0-.22-.05-.42-.14-.61,1.41-.94,2.61-1.43,3.07-1.23ZM14.87,2.58c.16-.21.41-.35.7-.35s.54.14.7.35c.01.01.02.02.03.03-.01-.02-.03-.03-.03-.03.12.15.19.34.19.54,0,.49-.4.89-.89.89s-.89-.4-.89-.89c0-.21.07-.39.19-.54ZM10.94,1.61c.04-.24.15-.31.23-.34.46-.2,1.65.29,3.07,1.23-.09.18-.14.39-.14.61,0,.18.04.36.1.52-.71.4-2.01,1.12-2.77,1.63-.17.12-.23.08-.26.06-.36-.24-.55-1.94-.24-3.72ZM15.31,7.02c-.34,0-.62.28-.62.62s.28.62.62.62.62-.28.62-.62-.28-.62-.62-.62ZM15.27,7.64s.02-.04.04-.04c.02,0,.04.01.04.04,0,.04-.08.04-.08,0ZM15.31,14.91c-.34,0-.62.28-.62.62s.28.62.62.62.62-.28.62-.62-.28-.62-.62-.62ZM15.27,15.53s.02-.04.04-.04c.02,0,.04.02.04.04,0,.05-.08.05-.08,0Z"/>
  </g>
</svg>