<?xml version="1.0" encoding="UTF-8"?>
<svg id="Layer_2" data-name="Layer 2" xmlns="http://www.w3.org/2000/svg" xmlns:xlink="http://www.w3.org/1999/xlink" viewBox="0 0 30.46 29.95">
  <defs>
    <style>
      .cls-1 {
        fill: url(#linear-gradient);
      }
    </style>
    <linearGradient id="linear-gradient" x1="0" y1="14.98" x2="30.46" y2="14.98" gradientUnits="userSpaceOnUse">
      <stop offset="0" stop-color="#b17717"/>
      <stop offset=".09" stop-color="#f6d87c"/>
      <stop offset=".16" stop-color="#fcf9e0"/>
      <stop offset=".24" stop-color="#f6d87c"/>
      <stop offset=".52" stop-color="#d4a744"/>
      <stop offset=".7" stop-color="#f6d87c"/>
      <stop offset=".85" stop-color="#f6d87c"/>
      <stop offset=".93" stop-color="#d4a744"/>
      <stop offset="1" stop-color="#b17717"/>
    </linearGradient>
  </defs>
  <g id="Layer_1-2" data-name="Layer 1">
    <path class="cls-1" d="M9.11,1.72c-.07-.19.02-.4.21-.47.19-.07.4.03.46.22.05.12,1.18,2.97,5.45,2.97s5.4-2.85,5.45-2.97c.07-.19.28-.28.46-.21.19.07.28.28.21.46-.05.14-1.33,3.44-6.12,3.44s-6.07-3.3-6.12-3.44ZM6.69,28.39h17.08c.48,0,.48-.72,0-.72H6.69c-.48,0-.48.72,0,.72ZM30.41,10.97c-.08.22-.26.4-.48.49l-5.48,2.22.94,15.39c.01.23-.07.46-.23.63-.16.17-.38.26-.61.26H5.91c-.23,0-.45-.1-.61-.26-.16-.17-.24-.4-.23-.63l.94-15.39L.53,11.46c-.22-.09-.4-.26-.48-.49-.08-.22-.07-.47.04-.68L3.5,3.81c.64-1.24,1.71-2.21,3.01-2.72.67-.26,2.71-1,2.73-1.01.26-.1.55-.11.81-.03,3.43.62,6.95.62,10.38,0,.26-.07.54-.06.79.04.02,0,2.05.75,2.72,1.01,1.3.51,2.37,1.48,3.01,2.72l3.4,6.48h0c.11.21.13.46.04.68ZM10.97.92c.51.92,1.68,2.25,4.26,2.25s3.76-1.33,4.26-2.25c-1.41.21-2.84.32-4.27.32-1.42,0-2.85-.11-4.25-.31ZM29.73,10.72s.01-.07,0-.1l-3.4-6.48c-.56-1.09-1.49-1.93-2.63-2.38-.66-.26-2.69-.99-2.71-1-.28-.11-.6.02-.74.29-.51,1.06-1.85,2.85-5.01,2.85s-4.49-1.78-5.01-2.85c-.14-.27-.46-.39-.74-.29-.02,0-2.05.75-2.71,1-1.14.45-2.07,1.3-2.63,2.38L.73,10.62c-.03.06,0,.14.06.17l5.26,2.13.04-.7-4.59-1.81c-.44-.18-.18-.84.26-.67l4.38,1.73.21-3.52c.01-.2.18-.35.38-.34s.35.18.34.38l-1.29,21.11c0,.07.05.13.12.13h18.64c.07,0,.12-.06.12-.13l-1.29-21.11c-.03-.48.69-.52.72-.04l.21,3.52,4.38-1.73c.44-.17.71.49.26.67l-4.59,1.81.04.7,5.26-2.13s.06-.04.07-.07Z"/>
  </g>
</svg>