<?xml version="1.0" encoding="UTF-8"?>
<svg id="Layer_2" data-name="Layer 2" xmlns="http://www.w3.org/2000/svg" xmlns:xlink="http://www.w3.org/1999/xlink" viewBox="0 0 26.27 37.07">
  <defs>
    <style>
      .cls-1 {
        fill: url(#linear-gradient);
      }
    </style>
    <linearGradient id="linear-gradient" x1="0" y1="18.54" x2="26.27" y2="18.54" gradientUnits="userSpaceOnUse">
      <stop offset="0" stop-color="#b17717"/>
      <stop offset=".09" stop-color="#f6d87c"/>
      <stop offset=".16" stop-color="#fcf9e0"/>
      <stop offset=".24" stop-color="#f6d87c"/>
      <stop offset=".52" stop-color="#d4a744"/>
      <stop offset=".7" stop-color="#f6d87c"/>
      <stop offset=".85" stop-color="#f6d87c"/>
      <stop offset=".93" stop-color="#d4a744"/>
      <stop offset="1" stop-color="#b17717"/>
    </linearGradient>
  </defs>
  <g id="Layer_1-2" data-name="Layer 1">
    <path class="cls-1" d="M13.36,37.07c-.93,0-1.87-.15-2.75-.46-.11-.04-.18-.14-.18-.25,0-.1,0-.19,0-.29-.63-.27-1.32-.39-2.01-.35,0,.08-.01.17-.02.25,0,.11-.09.21-.2.24-1.61.38-3.3.19-4.78-.55-.1-.05-.16-.16-.14-.27.04-.25.07-.5.11-.75-1.17-.15-2.3-.57-3.28-1.22-.09-.06-.13-.16-.11-.27,1.61-8.78,4.99-16.95,10.06-24.29-.32-1.3-.65-2.56-.97-3.78-.02-.07,0-.15.03-.21.39-.62.63-1.33.68-2.06.04-.74,0-1.49-.1-2.23-.02-.11.04-.22.14-.27.33-.17.68-.28,1.05-.3.12,0,.23.07.26.18.5,1.47,1.16,2.88,1.97,4.21.96-1.27,1.69-2.69,2.16-4.23.04-.12.16-.2.29-.18.38.06.75.15,1.11.27.13.05.2.19.17.32-.41,1.42-.22,2.96.51,4.24.03.06.04.13.03.19l-1.03,4c4.88,7.34,8.21,15.45,9.92,24.1.02.1-.02.2-.1.26-.92.7-1.94,1.27-3.02,1.68,0,.03.01.06.02.09l.03.18c.02.1-.03.21-.11.26-1.41.94-3.23,1.06-4.75.3-.08-.04-.14-.12-.14-.22,0-.07,0-.14-.01-.2-.68-.09-1.38.02-2.01.32,0,.19.02.38.02.57,0,.12-.07.22-.18.26-.85.29-1.75.43-2.65.43ZM10.96,36.17c1.52.49,3.17.5,4.69.03,0-.18-.01-.36-.02-.53,0,0,0,0,0-.01-.34-8.64-1.14-17.37-2.36-25.96-.06,0-.12,0-.17,0-1.15,8.67-1.87,17.48-2.13,26.2,0,0,0,.01,0,.02,0,.09,0,.17,0,.25ZM18.69,35.51c1.27.58,2.76.49,3.95-.24h0c-.02-.11-.04-.2-.05-.3,0,0,0,0,0-.01-1.29-7-3.1-13.97-5.37-20.72-.57-1.68-1.16-3.31-2.12-4.67-.12.02-.25.04-.37.06,2.61,7.86,3.24,16.28,3.86,24.43l.09,1.19s0,0,0,.01v.12s.02.09.02.13ZM3.84,35.27c1.27.59,2.69.75,4.06.47,0-.09.01-.19.02-.28,0,0,0,0,0,0,.34-5.32.88-10.69,1.61-15.97.45-3.27,1-6.72,2.28-9.92-.17-.03-.33-.06-.5-.1-3.55,7.96-6.03,16.37-7.35,24.98,0,0,0,0,0,0-.04.27-.08.55-.12.82ZM8.71,35.19c.6,0,1.19.11,1.75.32.27-8.6.98-17.29,2.11-25.84-.08,0-.15-.02-.23-.02-1.29,3.18-1.84,6.63-2.29,9.91-.71,5.17-1.24,10.43-1.58,15.64.08,0,.16,0,.24,0ZM13.8,9.7c1.2,8.45,1.99,17.04,2.34,25.55.63-.26,1.31-.36,1.99-.29l-.07-.87c-.61-8.15-1.25-16.58-3.87-24.41-.13.01-.26.02-.4.02ZM15.65,9.44c.93,1.38,1.51,2.97,2.06,4.62,2.25,6.67,4.04,13.56,5.33,20.49.95-.37,1.85-.87,2.67-1.48-1.7-8.51-4.99-16.48-9.78-23.71-.09.03-.19.05-.29.07ZM.55,33.08c.89.55,1.89.91,2.93,1.04,1.34-8.55,3.8-16.88,7.31-24.79-.11-.03-.23-.07-.34-.11C5.48,16.44,2.15,24.46.55,33.08ZM10.56,8.71c1.47.5,3.06.61,4.58.31,0,0,.02,0,.03,0,.23-.05.45-.1.67-.16l.99-3.85c-.72-1.31-.92-2.86-.57-4.31-.18-.05-.37-.1-.56-.14-.53,1.63-1.34,3.13-2.41,4.47-.05.07-.13.1-.22.1-.08,0-.16-.05-.21-.12-.88-1.39-1.61-2.88-2.15-4.44-.16.03-.32.07-.48.14.09.71.12,1.43.08,2.14-.05.78-.29,1.55-.7,2.22.31,1.18.62,2.39.94,3.64Z"/>
  </g>
</svg>