<?xml version="1.0" encoding="UTF-8"?>
<svg id="Layer_2" data-name="Layer 2" xmlns="http://www.w3.org/2000/svg" xmlns:xlink="http://www.w3.org/1999/xlink" viewBox="0 0 25.23 28.14">
  <defs>
    <style>
      .cls-1 {
        fill: url(#linear-gradient);
      }
    </style>
    <linearGradient id="linear-gradient" x1="0" y1="14.07" x2="25.23" y2="14.07" gradientUnits="userSpaceOnUse">
      <stop offset="0" stop-color="#b17717"/>
      <stop offset=".09" stop-color="#f6d87c"/>
      <stop offset=".16" stop-color="#fcf9e0"/>
      <stop offset=".24" stop-color="#f6d87c"/>
      <stop offset=".52" stop-color="#d4a744"/>
      <stop offset=".7" stop-color="#f6d87c"/>
      <stop offset=".85" stop-color="#f6d87c"/>
      <stop offset=".93" stop-color="#d4a744"/>
      <stop offset="1" stop-color="#b17717"/>
    </linearGradient>
  </defs>
  <g id="Layer_1-2" data-name="Layer 1">
    <path class="cls-1" d="M18.42,19.48c-.4-.29-1.39-1.07-1.92-2.15-.18-.38-.57-.62-.99-.62h-5.8c-.42,0-.81.24-.99.62-.52,1.08-1.52,1.86-1.92,2.15-.29.21-.46.54-.46.9v2.94c0,.61.49,1.1,1.1,1.1h10.34c.61,0,1.1-.49,1.1-1.1v-2.94c0-.36-.17-.69-.46-.9ZM18.06,23.32c0,.15-.12.28-.28.28H7.45c-.15,0-.28-.12-.28-.28v-2.94c0-.09.04-.17.12-.23.56-.4,1.6-1.25,2.18-2.46.05-.1.14-.16.25-.16h5.8c.11,0,.2.06.25.16.59,1.2,1.62,2.06,2.18,2.46.07.05.12.14.12.23v2.94ZM24.09,10.55c-.05-.22-.26-.37-.49-.32-.22.05-.37.26-.32.49,1.09,5.31,1.13,11.28,1.13,11.34v1.87c0,.12-.1.22-.22.22h-3.39v-10.39c0-2.4.44-4.74,1.29-6.97.13.21.24.44.32.68.15.43.29.9.43,1.39.05.18.22.3.4.3.04,0,.07,0,.11-.01.22-.06.35-.29.29-.51-.14-.51-.29-1-.44-1.45-.2-.57-.5-1.07-.91-1.51,0,0,0,0,0,0-.87-.92-1.62-1.02-3.43-1.91.05-.25.04-.51-.03-.76l-.2-.68c-.18-.62-.63-1.15-1.02-1.38-.21-.14-.43-.24-.67-.31C14.11-.21,11.12-.21,8.3.62c-1.67.49-1.75,2.11-1.88,2.37-.07.26-.08.52-.03.76-1.8.89-2.56.99-3.43,1.92,0,0,0,0,0,0-.41.44-.72.95-.91,1.51C.06,12.92,0,21.96,0,22.05v1.87c0,.48.32.88.76,1v.73c0,.58.47,1.05,1.05,1.05h2.41c.41,0,.77-.24.94-.58.15.09.31.15.48.18v.56c0,.71.58,1.28,1.28,1.28h11.4c.71,0,1.28-.58,1.28-1.28v-.59c.16-.04.31-.11.45-.2.16.38.53.65.97.65h2.41c.58,0,1.05-.47,1.05-1.05v-.73c.44-.13.76-.53.76-1v-1.87c0-.06-.03-6.11-1.14-11.5ZM17.48,1.92c.16.18.27.39.34.62l.2.68c.11.39-.09.79-.46.94l-2.92,1.15c.91-.89,2.01-2.08,2.85-3.4ZM12.62,6.02c-.48-.4-1.48-1.27-2.49-2.38,1.66-.08,3.33-.08,4.99,0-1.01,1.12-2.01,1.98-2.49,2.38ZM8.54,1.41c2.67-.78,5.49-.78,8.16,0,.04.01.07.02.11.04-.31.49-.66.96-1.02,1.4-2.11-.12-4.24-.12-6.35,0-.36-.44-.71-.91-1.02-1.4.04-.01.07-.03.11-.04ZM7.21,3.22c.18-.52.18-.89.54-1.3.84,1.32,1.93,2.51,2.85,3.4l-2.92-1.15c-.38-.15-.58-.55-.46-.94ZM4.44,25.66c0,.12-.1.22-.22.22H1.8c-.12,0-.22-.1-.22-.22v-.69h2.86v.69ZM18.77,26.85c0,.25-.2.46-.46.46H6.91c-.25,0-.46-.21-.46-.46v-.54h12.32v.54ZM19.97,13.74v10.95c0,.42-.33.79-.79.8-12.83,0-13.29,0-13.3,0h0c-.34,0-.62-.28-.62-.62v-2.89c0-.23-.18-.41-.41-.41s-.41.18-.41.41v2.15H1.05c-.12,0-.22-.1-.22-.22v-1.87s0-2.43.31-5.63c.34-3.67.93-6.77,1.69-8.96.08-.24.19-.47.32-.68.86,2.23,1.29,4.57,1.29,6.97v6.31c0,.23.18.41.41.41s.41-.18.41-.41v-6.31c0-2.65-.51-5.24-1.52-7.69.62-.57,1.07-.63,3.01-1.56.16.19.37.34.62.44l3.66,1.44v4.48c0,.23.18.41.41.41s.41-.18.41-.41v-4.16s.34.15.76.15c.44,0,.72-.14.76-.15v2.31c0,.23.18.41.41.41s.41-.18.41-.41v-2.64l3.66-1.44c.25-.1.46-.25.62-.44,1.94.93,2.39.99,3.01,1.56-1.01,2.45-1.52,5.04-1.52,7.69ZM23.65,25.66c0,.12-.1.22-.22.22h-2.41c-.12,0-.22-.1-.22-.22v-.69h2.86v.69Z"/>
  </g>
</svg>