<?xml version="1.0" encoding="UTF-8"?>
<svg id="Layer_2" data-name="Layer 2" xmlns="http://www.w3.org/2000/svg" xmlns:xlink="http://www.w3.org/1999/xlink" viewBox="0 0 36.06 28.14">
  <defs>
    <style>
      .cls-1 {
        fill: url(#linear-gradient);
      }
    </style>
    <linearGradient id="linear-gradient" x1="-1.08" y1="25.26" x2="60.09" y2="-8.18" gradientUnits="userSpaceOnUse">
      <stop offset="0" stop-color="#b17717"/>
      <stop offset=".09" stop-color="#f6d87c"/>
      <stop offset=".16" stop-color="#fcf9e0"/>
      <stop offset=".24" stop-color="#f6d87c"/>
      <stop offset=".52" stop-color="#d4a744"/>
      <stop offset=".7" stop-color="#f6d87c"/>
      <stop offset=".85" stop-color="#f6d87c"/>
      <stop offset=".93" stop-color="#d4a744"/>
      <stop offset="1" stop-color="#b17717"/>
    </linearGradient>
  </defs>
  <g id="Layer_1-2" data-name="Layer 1">
    <path class="cls-1" d="M35.97,24.53s.03,0,.03.03c.1.18.08.44-.08.59-1.37,1.21-3.81,2.99-5.72,2.99h-13.24c-1.83,0-4.46-1.78-5.72-2.99-.15-.15-.21-.41-.08-.59l.67-1.13c-1.11-.52-2.01-1.42-2.52-2.52-.82,1.8-2.65,2.96-4.66,2.96h-1.29c-.15,0-.26-.05-.36-.15-.54.31-1.91.13-2.52.15-.26,0-.46-.18-.46-.46V6.44c0-.64.23-1.67.8-2.04.62-.39,1.44-.75,2.11-1,1.31-.54,2.58-1.31,3.25-2.63.08-.15.23-.23.41-.23h5.46c.15,0,.31.08.39.21.7,1.34,1.91,2.09,3.27,2.65.64.26,1.52.62,2.11,1,.57.36.77,1.42.77,2.04v5.54c.62-1.13,1.7-2.81,1.57-4.02-.05-.49-.26-.9-.59-1.26-.9-1.21-2.06-3.5.15-4.05V.46c0-.26.21-.46.46-.46s.46.21.46.46v2.11c.9.03,2.27.85,2.91,1.47.64-.62,2.04-1.44,2.94-1.47V.46c0-.26.21-.46.46-.46s.46.21.46.46v2.19c1.42.39,1.55,1.42.95,2.68-.93,1.98-2.14,2.06-.93,4.53.44.98,1.03,1.98,1.55,2.91.8,1.44,1.65,2.86,2.47,4.25,1.03,1.73,2.04,3.43,3.07,5.13.49.8.98,1.57,1.44,2.37h0ZM17.65,22.93V6.44c0-.33-.05-.7-.21-1.03-1.26,1.93-1.44,4.38-1.65,6.6-.15,1.65-.1,3.53-.1,5.2s.03,3.43,0,5.13c0,.33.28.59.59.59h1.37ZM13.14,4.66l-.7-1.57c-.31,3.14-1.39,6.16-2.32,9.17l2.83-5.8-.54-.57c-.21-.18-.18-.52.03-.67l.7-.57ZM5.62,6.47l2.83,5.8c-.93-3.01-2.04-6.05-2.32-9.17l-.7,1.57.7.57c.49.46-.23.9-.52,1.24h0ZM7.16,3.89c.1.93.31,1.83.57,2.76v-.03c.03.13.08.26.1.36l.21-2.37c-.31-.21-.59-.46-.88-.72h0ZM9.3,11.88c.26-.8.49-1.62.75-2.42l-.39-4.41c-.26.05-.49.05-.72,0l-.39,4.38c.23.82.49,1.65.75,2.45h0ZM11.41,3.97s0-.03.03-.05c-.28.23-.59.46-.88.67l.18,2.4c.28-1,.54-1.96.67-2.99v-.03h0ZM9.74,4.02l.03-.03c.26-.15.49-.33.72-.52-.44-.7-1.93-.7-2.42-.03.49.41,1.03.93,1.67.57h0ZM11.57,2.45v-1h-4.56c0,.33,0,.67.03,1,.1.13.23.26.36.39.8-1.08,2.99-1.06,3.79.05.13-.13.26-.28.39-.44h0ZM2.27,22.93h.03c.31,0,.59-.26.59-.59v-7.68c0-2.45-.18-4.9-.85-7.24-.21-.7-.46-1.44-.9-2.01-.13.31-.21.67-.21,1.03v16.49h1.34ZM4.66,22.96c2.29-.03,4.15-1.88,4.17-4.17,0-.39-.03-3.22,0-3.63L4.64,6.6c-.21-.41.28-.7.52-.95l-.59-.49c-.15-.15-.21-.36-.13-.57l.57-1.24c-.88.62-2.16,1-3.12,1.49.95,1.37,1.29,3.04,1.55,4.64.44,2.55.39,5.23.39,7.81h2.16c.28,0,.46.21.46.46s-.21.46-.46.46h-2.16v4.72h.82s.03,0,.03.03h0ZM13.42,5.62c.23.26.72.57.52.95l-4.17,8.58v3.61c.05,2.78,2.37,4.43,5,4.17v-4.72h-2.16c-.26,0-.46-.21-.46-.46s.21-.46.46-.46h2.16c0-2.58-.05-5.28.39-7.81.28-1.6.59-3.27,1.55-4.64-.95-.49-2.22-.88-3.12-1.49l.57,1.24c.21.44-.41.77-.72,1.03h0ZM15.59,23.7c-.08.1-.21.15-.36.15-.75,0-1.78.05-2.5-.15l-.59.98c1.13.98,3.27,2.52,4.79,2.52h13.27c1.52,0,3.66-1.55,4.79-2.52-1.47-2.4-2.91-4.79-4.35-7.21-.82-1.42-1.65-2.83-2.47-4.28-.52-.93-1.11-1.96-1.55-2.94-1.34-2.83-.21-3.09.95-5.36.13-.26.33-.75.15-1.03-.39-.59-1.62-.39-2.14-.08-.46.23-1.31.77-1.62,1.21-.08.13-.26.21-.39.21-.15,0-.31-.08-.41-.21h0c-.23-.41-1.21-1-1.6-1.21-.41-.23-.9-.31-1.37-.28-.93.05-1,.7-.62,1.42.21.44.46.82.75,1.24.44.57.75,1.19.77,1.91.08,1.75-1.7,4.25-2.52,5.8v6.34l2.86-8.53c.08-.23.33-.36.57-.28.26.08.39.33.31.57l-3.74,11.18c.03.23.03.52-.21.64l-.39,1.13c-.18.57-1.06.28-.88-.31l.26-.75c-.52,0-1.34.1-1.78-.15h0ZM25.71,11.67l4.3,12.93c.08.26-.05.52-.28.59-.26.08-.52-.05-.59-.31l-4.33-12.93c-.08-.23.05-.52.31-.59.26-.05.49.05.59.31h0Z"/>
  </g>
</svg>