<?xml version="1.0" encoding="UTF-8"?>
<svg id="Layer_2" data-name="Layer 2" xmlns="http://www.w3.org/2000/svg" xmlns:xlink="http://www.w3.org/1999/xlink" viewBox="0 0 15.32 28.78">
  <defs>
    <style>
      .cls-1 {
        fill: url(#linear-gradient);
      }
    </style>
    <linearGradient id="linear-gradient" x1="0" y1="14.39" x2="15.32" y2="14.39" gradientUnits="userSpaceOnUse">
      <stop offset="0" stop-color="#b17717"/>
      <stop offset=".09" stop-color="#f6d87c"/>
      <stop offset=".16" stop-color="#fcf9e0"/>
      <stop offset=".24" stop-color="#f6d87c"/>
      <stop offset=".52" stop-color="#d4a744"/>
      <stop offset=".7" stop-color="#f6d87c"/>
      <stop offset=".85" stop-color="#f6d87c"/>
      <stop offset=".93" stop-color="#d4a744"/>
      <stop offset="1" stop-color="#b17717"/>
    </linearGradient>
  </defs>
  <g id="Layer_1-2" data-name="Layer 1">
    <path class="cls-1" d="M14.8,2.21c.04-.36.08-.73.08-1.09.06-.5-.27-1.02-.79-1.1-.67-.04-1.53,0-2.19-.01-1.12.02-2.57.04-4.05.06-.07,0-.15,0-.22,0-1.88.03-3.81.06-5.23.08-.35.01-.75,0-1.11.03-.43.07-.7.49-.65.91v.26s0,.44,0,.75h-.01C-.14,3.05.05,4.39,0,5.52c0,2.04,0,7.52,0,9.62,0,2.1.02,7.59.03,9.62,0,.51.01,1.91.01,2.41-.09,1.01.7,1.71,1.68,1.61h.4s1.6,0,1.6,0h.4c.54.05,1.12-.18,1.39-.66.17-.25.21-.65.24-.94l.09-.8c.38-3.35,1.27-11.2,1.85-16.25.43,3.61,1.32,10.99,1.32,10.99.13,1.13.49,4.11.62,5.2.04.31.11,1.01.16,1.32.1.57.63,1.02,1.21,1.02.57,0,2.03,0,2.62,0,.74.1,1.52-.36,1.57-1.16,0-1.25.02-7.48.02-8.85.01-.46-.38-.73-.81-.73-.81-.11-1.63-.37-2.28-.84-.08-.07-.3-.17-.25-.29.02-.03.16-.14.2-.17.66-.47,1.46-.73,2.27-.84l.2-.02c.4,0,.74-.42.7-.79,0-1.38.03-4.25.04-5.67l.03-3.49c-.04-1.18.21-2.55-.51-3.6h0ZM14.14,2.81c.26.5.31,1.05.32,1.61-.42.06-.86.1-1.29.1-.29-.14-.62-.17-.93-.1-.24-.15-.33-.38-.28-.68.03-.34.06-.69.04-1.03.78,0,1.5,0,2.09.01h0s.04.05.05.09h0ZM13,5.77c.08.84-1.19.88-1.16,0,.11-.74,1.05-.65,1.16,0h0ZM12.42,8.88c.06-.62.21-1.23.28-1.86.59-.06,1.14-.47,1.2-1.25,0-.25-.04-.46-.12-.65.23,0,.45.03.69.06,0,.21,0,.42,0,.62l.03,3.49v.19c-.18.79-1.34,1.13-1.88.38-.23-.31-.24-.61-.19-.98h0ZM13.93.97c0,.38.08.71.16,1.12-1.5.01-3.32.02-5.21.03.12-.18.2-.4.22-.67,0-.2-.03-.37-.08-.52,1.11.02,2.14.03,2.89.04,0,0,2.04.01,2.03,0h0ZM9.29,4.83c-.04.28-.28.47-.51.48-.2,0-.41-.02-.62-.02.01-.87-.05-1.73-.19-2.59.4,0,.82,0,1.23,0,.12.71.13,1.43.08,2.13h0ZM6.12,17.34c-.39.26-.78.54-1.22.73-1.28.66-3.07.34-3.95-.81,0-.14,0-.27,0-.41,1.37-1.7,3.67-1.32,5.23-.02l-.06.51h0ZM.96,15.86c0-2.55,0-5.06,0-7.14v-3.21c0-.08,0-.16,0-.23.62,0,1.26-.09,1.87-.13.57,0,1.14-.44,1.28-1.01.08-.5.07-.97.14-1.45h.14c.71,0,1.8,0,3.02,0-.24,1.49-.26,2.99-.05,4.49l-1.04,8.58c-1.55-1.08-3.71-.84-5.36.1h0ZM8.2,1.45c.08.84-1.19.88-1.16,0,.11-.74,1.05-.65,1.16,0h0ZM1.41.81l2.05.03c.79.01,1.88.03,3.04.05-.06.16-.1.35-.09.56.02.27.1.49.22.67-1.93,0-3.81,0-5.36-.01,0-.36,0-.89,0-1.02,0-.12,0-.26.14-.28h0ZM3.44,2.7c.12.73.36,1.86-.61,1.77-.61-.04-1.26-.14-1.88-.13,0-.58.06-1.15.34-1.61l-.02-.02c.35,0,1.3,0,2.17,0h0ZM5.81,19.91l-.77,6.37-.1.8c-.02.14-.04.5-.13.61-.14.25-.43.27-.69.25h-.4s-1.6,0-1.6,0c-.17,0-.62,0-.75,0-.39-.06-.49-.4-.46-.74,0-.49.01-1.9.01-2.41,0-1.9.02-4.18.02-6.52,1.53.88,3.5,1.17,5.02.33l-.16,1.34h0ZM14.53,15.03s0,0-.01.01c-.86.09-1.7.32-2.46.76-.19.11-.41.26-.58.4-.36.26-.4.88-.05,1.17.87.72,1.98,1.07,3.09,1.17.03,0,.05.03.05.07,0,.21,0,.53,0,.94-.48-.05-1.21.01-1.32.09-.39.36.71.39,1.32.32,0,.22,0,.45,0,.7-.49-.06-1.22,0-1.33.08-.4.36.73.39,1.33.32,0,.23,0,.46,0,.7-.49-.06-1.24,0-1.35.08-.4.37.75.4,1.35.32,0,.23,0,.46,0,.7-.08,0-.17-.02-.26-.02-.23,0-.48,0-.69.02-.21.02-.37.05-.41.09-.13.12-.1.2.02.25.12.06.33.08.56.09.23,0,.48,0,.69-.02.03,0,.06,0,.09-.01,0,.29,0,.58,0,.87-.12-.02-.25-.03-.39-.03-.11,0-.23,0-.34,0-.17,0-.34.01-.5.03-.22.02-.4.05-.51.09-.15.12-.1.2.06.26.16.06.42.08.71.09.23,0,.48,0,.7-.02.1,0,.19-.02.27-.03,0,.31,0,.61,0,.89-.17-.02-.34-.04-.52-.05-.13,0-.27,0-.4,0-.2,0-.4.01-.59.03-.22.02-.43.05-.6.09-.17.12-.1.2.09.26.2.06.52.09.87.09.24,0,.49,0,.71-.02.18-.01.33-.03.43-.06h0c0,.34,0,.66,0,.92-.37-.05-.74-.08-1.11-.07-.46,0-.92.05-1.38.13-.19.12-.11.21.13.26.23.06.62.09,1.02.09.41,0,.84-.02,1.16-.05.06,0,.12-.02.17-.03v.41c-.07.49-.43.66-.97.61h-1.74c-.44-.04-1.1.15-1.39-.26-.15-.2-.13-.43-.17-.69l-.1-.87c-.13-1.1-.47-4.07-.61-5.2l-1.58-13.85c.04-.31.07-.62.1-.93.3,0,.61-.01.9-.09.57-.19.93-.76.9-1.3-.04-.74-.03-1.44.09-2.15.35,0,.7,0,1.05,0-.05.73-.01,1.62.51,2.09-.22.23-.37.55-.36.98.03.49.27.83.58,1.04-.13.51-.17,1.05-.19,1.58-.03.65.02,1.42.53,1.9.66.72,1.68.7,2.38.2.01,1.48.03,3.42.03,4.47,0,.1,0,.06,0,.07h0Z"/>
  </g>
</svg>