<?xml version="1.0" encoding="UTF-8"?>
<svg id="Layer_2" data-name="Layer 2" xmlns="http://www.w3.org/2000/svg" xmlns:xlink="http://www.w3.org/1999/xlink" viewBox="0 0 31.63 25.77">
  <defs>
    <style>
      .cls-1 {
        fill: url(#linear-gradient);
      }
    </style>
    <linearGradient id="linear-gradient" x1="332.85" y1="2133.09" x2="367.26" y2="2133.09" gradientTransform="translate(806.4882 -2000.3504) rotate(30.7211)" gradientUnits="userSpaceOnUse">
      <stop offset="0" stop-color="#b17717"/>
      <stop offset=".09" stop-color="#f6d87c"/>
      <stop offset=".16" stop-color="#fcf9e0"/>
      <stop offset=".24" stop-color="#f6d87c"/>
      <stop offset=".52" stop-color="#d4a744"/>
      <stop offset=".7" stop-color="#f6d87c"/>
      <stop offset=".85" stop-color="#f6d87c"/>
      <stop offset=".93" stop-color="#d4a744"/>
      <stop offset="1" stop-color="#b17717"/>
    </linearGradient>
  </defs>
  <g id="Layer_1-2" data-name="Layer 1">
    <path class="cls-1" d="M31.55,20.88c-.18-.7-.93-1.55-2.29-2.58-.79-.6-1.55-1.08-1.8-1.23-.31-.41-.74-1-1.24-1.76.23-.1.36-.35.3-.6-.07-.27-.35-.44-.62-.37l-.26.07c-.15-.24-.3-.48-.46-.74h.01c.27-.07.44-.35.37-.62-.07-.27-.35-.44-.62-.37l-.31.08c-.14-.24-.29-.49-.44-.75h.04c.27-.08.44-.36.37-.63-.07-.27-.35-.44-.62-.37l-.32.08c-.14-.24-.28-.5-.42-.75h.02c.27-.07.44-.35.37-.63-.07-.27-.35-.44-.62-.37l-.27.07c-.58-1.1-1.17-2.27-1.75-3.52-.1-.24-.87-2.05-2.01-2.47-.38-.14-.77-.12-1.13.06-1.31.67-1.81,1.51-1.64,2.82-.9.01-1.75-.1-2.33-.45-1.03-.61-.99-1.93-.95-3.08.03-.96.06-1.86-.61-2.26-.11-.07-.23-.13-.35-.18-1.25-.56-2.73-.41-3.89.38-.96.66-2.35,1.67-3.48,2.7-1.31,1.19-1.98,2.13-2.07,2.9L.21,8.07c-.18.13-.25.36-.18.57.04.14,1.14,3.35,6.11,6.3l15.76,9.37c3.21,1.91,6.49,1.96,7.78.17.47-.11.93-.44,1.3-.94.58-.79.79-1.78.57-2.65h0ZM30.01,20.32c-.76-.13-1.79-.31-2.65-.49-.56-.12-2.26-.47-2.68-1.22-.03-.05-.06-.12-.08-.2,1.33.56,2.22.63,2.72.22.09-.07.17-.16.24-.29.89.59,1.87,1.34,2.46,1.98h0ZM20.85,10.42c.03.14.12.25.23.31s.25.09.39.06l.75-.19c.14.26.28.51.41.75l-.45.12c-.27.07-.44.35-.37.62.03.14.12.25.23.31s.25.09.39.06l.72-.18c.15.26.29.51.44.75l-.45.11c-.27.07-.44.35-.37.62.03.14.12.25.23.31s.25.09.39.06l.75-.19c.16.26.31.51.46.74l-.5.13c-.27.07-.44.35-.37.62.03.14.12.25.23.31s.25.09.39.06l.83-.21c.75,1.13,1.27,1.85,1.46,2.1.01.08.01.14,0,.16-.14.06-.79.06-2.26-.65-1.78-.85-4.98-.38-6.21.56-1.23-.91-2.59-1.95-3.98-3.02.27-.82.09-1.88-.55-3.2l7.77-2.43c.1.19.2.39.3.57l-.51.13c-.27.07-.44.35-.37.62h0ZM18.33,4.39c.1-.05.19-.06.31-.02.41.15.87.81,1.17,1.39-.67.18-1.6.38-2.56.47-.15-.92.14-1.37,1.08-1.85h0ZM8.68,1.56c.86-.59,1.97-.7,2.89-.29.09.04.17.08.24.13.15.09.12.9.11,1.34-.02.73-.05,1.6.2,2.39-.73-.03-1.41-.35-1.89-.9l-2.03-2.32c.16-.11.32-.23.49-.34h0ZM6.02,3.55c.63.62,2.1,2.11,3.55,3.84.04.05.08.08.13.11.18.11.42.1.59-.05.22-.18.24-.5.06-.72-1.41-1.68-2.85-3.14-3.53-3.83.17-.13.35-.27.54-.41l2.1,2.39c.26.3.56.54.89.74.58.34,1.24.52,1.92.52h.4c.19.21.42.41.7.58,1.96,1.17,5.62.32,6.88-.03.24.5.47.99.71,1.47l-7.79,2.43c-.4-.69-.91-1.44-1.53-2.26-.17-.23-.49-.27-.72-.1-.23.17-.27.49-.1.72,2.07,2.75,2.52,4.25,2.47,5.06-4.36-3.38-8.72-6.89-9.71-7.68.12-.52.83-1.45,2.43-2.79h0ZM26.49,24.75c-1.25-.04-2.7-.51-4.07-1.33L6.65,14.06c-3.7-2.2-5.1-4.56-5.51-5.41l1.91-1.42c2.22,1.79,15.08,12.11,18.69,14.25.09.05.17.1.26.15.24.14.56.06.7-.19.14-.24.06-.55-.18-.69h0c-.08-.05-.16-.1-.24-.15-.72-.43-1.85-1.22-3.2-2.2.36-.19.95-.4,1.74-.52,1.05-.17,2.05-.13,2.78.09-.05.41.02.79.22,1.14.21.37.54.66.93.89.71.42,1.62.66,2.43.83,1.23.26,2.77.51,3.46.63.04.57-.19,1.12-.45,1.47-.23.31-.51.52-.75.56-.4-.08-2.52-.56-5.13-1.81-.25-.12-.56-.01-.68.24-.12.25-.01.56.24.68,1.94.93,3.61,1.45,4.57,1.7-.61.41-1.41.47-1.92.45h0Z"/>
  </g>
</svg>