<?xml version="1.0" encoding="UTF-8"?>
<svg id="Layer_2" data-name="Layer 2" xmlns="http://www.w3.org/2000/svg" xmlns:xlink="http://www.w3.org/1999/xlink" viewBox="0 0 32.29 24.15">
  <defs>
    <style>
      .cls-1 {
        fill: url(#linear-gradient);
      }
    </style>
    <linearGradient id="linear-gradient" x1="0" y1="12.07" x2="32.29" y2="12.07" gradientUnits="userSpaceOnUse">
      <stop offset="0" stop-color="#b17717"/>
      <stop offset=".09" stop-color="#f6d87c"/>
      <stop offset=".16" stop-color="#fcf9e0"/>
      <stop offset=".24" stop-color="#f6d87c"/>
      <stop offset=".52" stop-color="#d4a744"/>
      <stop offset=".7" stop-color="#f6d87c"/>
      <stop offset=".85" stop-color="#f6d87c"/>
      <stop offset=".93" stop-color="#d4a744"/>
      <stop offset="1" stop-color="#b17717"/>
    </linearGradient>
  </defs>
  <g id="Layer_1-2" data-name="Layer 1">
    <path class="cls-1" d="M2.51,9.86c-.83-2.11-.56-4.44.8-6.73C4.31,1.43,5.55.35,5.6.31l.36-.31.33.34c5.58,5.8,6.71,8.56,8.03,11.76.3.72.6,1.47.97,2.27.75,1.63,1.88,2.59,3.35,2.84,1.11.19,1.98-.1,1.99-.1l.18-.06,7.16,3.19-.4.91-6.67-2.98c-1.29,1.22-2.56,1.84-3.77,1.84-.26,0-.52-.03-.78-.09-2.58-.57-3.87-3.85-3.99-4.18l-.6-1.3.9-.42.63,1.36s1.16,3.1,3.29,3.57c.82.18,1.71-.05,2.65-.69-.23,0-.48-.03-.74-.07-1.25-.21-2.97-.97-4.09-3.4-.38-.82-.69-1.58-.99-2.31-1.09-2.65-2.05-4.99-5.69-9.13l3.68,7.94-.9.42L5.77,1.53c-.43.45-1.07,1.19-1.62,2.13-1.2,2.04-1.44,4.01-.72,5.84.74,1.88,1.28,4.59,1.6,8.05l-.99.09c-.31-3.37-.82-5.99-1.53-7.78ZM10.89,12.6l.43.92.9-.42-.43-.92-.9.42ZM4.93,8.17v.99h1.02v-.99h1.02v-.99h-1.03v.99h-1.02ZM32.29,23.16v.99s-32.29-.07-32.29-.07v-.99s4.32,0,4.32,0c0-.81-.05-2.5-.2-4.48l.99-.08c.15,2.01.19,3.74.2,4.56h1.13s0-8.31,0-8.31l-.91-.8.65-.75,1.06.93c.35.25,3.62,2.65,4.1,6.45.1.75.39,1.43.85,1.96.43.5.66.52.7.52.82,0,13.5-.07,16.3-.09-.11-.57-.42-1.09-.88-1.47l.63-.77c.73.59,1.18,1.44,1.28,2.36h2.09ZM11.33,23.11c-.53-.66-.86-1.47-.98-2.36-.3-2.4-1.93-4.23-2.93-5.14v7.48h3.9ZM16.71,4.14h-.99v.99h.99v-.99h.99v-.99h-.99v-.99h-.99v.99h.99v.99ZM15.72,3.15h-.99v.99h.99v-.99ZM24.58,10.13h-.99v.99h.99v-.99ZM23.59,13.1h.99v-.99h-.99v.99ZM25.57,12.11v-.99h-.99v.99h.99ZM23.59,11.12h-.99v.99h.99v-.99Z"/>
  </g>
</svg>