<svg id="Capa_1" enable-background="new 0 0 511.969 511.969" height="512" fill="#002749" viewBox="0 0 511.969 511.969" width="512" xmlns="http://www.w3.org/2000/svg"><g><path d="m229.863 167.892c26.329 0 47.749-21.42 47.749-47.749v-8.167c.809.058 1.62.098 2.438.098 18.367 0 33.31-14.947 33.31-33.32 0-18.367-14.943-33.31-33.31-33.31-12.777 0-23.968 7.097-29.551 17.859-31.772-15.319-68.36 8.776-68.384 43.082v13.758c-.001 26.329 21.419 47.749 47.748 47.749zm0-15c-18.058 0-32.749-14.691-32.749-32.749v-13.033c10.743 9.567 30.57 20.754 64.567 20.762-3.483 14.339-16.423 25.02-31.818 25.02zm50.186-92.447c10.096 0 18.31 8.214 18.31 18.31 0 10.102-8.214 18.32-18.31 18.32-1.157 0-2.295-.118-3.412-.329-1.578-8.208-6.731-18.201-13.625-24.711 2.684-6.893 9.329-11.59 17.037-11.59zm-40.645 14.595c15.566 4.729 25.015 20.184 23.207 37.831-39.541.297-55.988-16.053-61.106-22.844 6.653-11.786 21.877-19.747 37.899-14.987z"/><path d="m509.907 30.848c-4.246-8.828-13.876-13.435-23.424-11.206l-23.283 5.443 4.632-6.496c2.405-3.373 1.621-8.056-1.752-10.46-3.373-2.406-8.056-1.622-10.46 1.752l-62.781 101.591c-2.105 3.567-.92 8.166 2.647 10.271s8.165.921 10.271-2.647l44.628-75.61 39.514-9.238c2.648-.617 5.317.657 6.499 3.115.38.786.573 1.626.573 2.497 0 1.934-.957 3.725-2.562 4.793l-37.871 25.23c-1.204.802-2.15 1.935-2.725 3.263l-44.455 102.718c-2.294 5.297-5.998 9.849-10.605 13.205l-9.995-45.032c-1.056-3.883-4.665-7.119-9.627-5.604l-170.738 56.917c-12.396 4.236-22.628 12.93-28.812 24.479l-39.869 74.467-124.814 1.026c-4.14.144-7.379 3.616-7.235 7.756.141 4.051 3.469 7.24 7.491 7.24.088 0 .177-.001.265-.004l11.094-.385-20.899 22.246c-7.06 7.518-7.515 19.245-1.063 27.275 3.971 4.947 9.888 7.785 16.234 7.785 3.689 0 7.331-.993 10.536-2.873l30.626-17.993 85.736 8.646c12.874 1.289 25.714-4.336 33.496-14.683l34.403-45.77 6.52 19.367-.9 30.67-105.352 148.801c-2.394 3.381-1.593 8.062 1.787 10.455 3.379 2.393 8.061 1.593 10.455-1.787l106.663-150.65c.854-1.206 1.333-2.637 1.375-4.114l.549-18.694c16.076 14.219 46.486 43.205 76.568 83.164 1.474 1.958 3.722 2.99 5.998 2.99 1.57 0 3.154-.491 4.505-1.509 3.309-2.491 3.972-7.193 1.481-10.502-20.055-26.64-40.007-48.338-56.101-64.315 33.939 17.047 79.307 45.016 99.918 80.426 1.478 16.818 1.522 34.429.128 52.614-6.989-13.178-14.749-26.304-23.208-39.231-2.269-3.466-6.918-4.437-10.383-2.169-3.466 2.268-4.437 6.917-2.169 10.383 12.996 19.859 24.292 40.182 33.574 60.403 1.993 5.582 12.957 6.367 14.239-2.056 4.182-28.928 5.062-56.84 2.615-82.961-7.465-79.728-43.191-120.912-52.719-130.592l-3.707-52.661 68.729-25.269c12.042-4.427 21.873-13.721 26.975-25.5l43.575-100.686 36.024-24c5.79-3.855 9.247-10.314 9.247-17.278.001-3.107-.714-6.228-2.061-9.013zm-134.031 124.378 8.941 40.283-67.473 24.807c-2.122.52-5.589 3.928-5.285 7.698l3.865 54.913-35.708 9.167 40.922-119.344 48.563-15.546zm-108.325 35.759-10.36 28.083-17.331-18.62zm-.506 44.713 18.801-50.965 17.361-5.933-40.378 117.756-21.021 5.395zm-74.24-8.789c4.387-8.193 11.646-14.36 20.439-17.365l11.07-3.783 27.024 29.034-21.259 55.809-4.823-14.328c-1.452-4.85-9.18-7.494-13.103-2.113l-37.519 49.916-21.316-23.414zm-43.622 113.181-88.169-8.892c-1.582-.155-3.178.189-4.552.996l-32.735 19.232c-.901.529-1.919.808-2.942.808-1.774 0-3.427-.792-4.539-2.177-1.8-2.241-1.67-5.515.301-7.614l31.138-33.148h93.204l23.981 26.341c-4.432 3.357-10.05 5.019-15.687 4.454zm104.369-25.665 67.989-17.45c12.799 13.298 34.41 47.451 42.936 90.758-32.296-35.503-82.503-60.859-110.925-73.308z"/><path d="m259.82 493.309c-10.598-5.563-8.159-13.864-7.561-15.476 1.729-3.011.396-6.856-2.826-8.15l-.283-.113c-3.068-1.232-6.555.383-7.568 3.53-3.668 11.394-2.108 23.82 12.517 31.425.928.482 1.92.711 2.899.711 2.836 0 5.55-1.923 6.211-5.158.558-2.741-.913-5.469-3.389-6.769z"/><path d="m227.954 448.236c-12.059.903-22.952 6.277-25.687 22.005-.537 3.089 1.138 6.24 4.105 7.251.69.235 1.388.345 2.066.345 3.021 0 5.688-2.181 6.201-5.259 1.985-11.893 10.678-12.145 12.399-12.07l1.221.039c3.316.105 6.119-2.434 6.344-5.743.254-3.761-2.893-6.85-6.649-6.568z"/><path d="m243.013 435.143.158-.04c3.662-.921 5.681-4.93 4.123-8.37-4.569-10.088-13.09-18.427-28.749-16.078-3.438.515-5.807 3.72-5.292 7.158.516 3.438 3.721 5.809 7.158 5.292 11.921-1.785 14.846 6.402 15.31 8.062 1.023 3.024 4.197 4.754 7.292 3.976z"/><path d="m273.855 440.114c8.317-7.356 13.801-18.113 6.655-32.429-1.787-3.58-6.523-4.713-9.794-1.923-2.203 1.879-2.691 5.066-1.411 7.663 5.276 10.709-1.564 15.983-2.994 16.934-2.53 1.779-3.225 5.228-1.58 7.848l.381.607c1.898 3.024 6.069 3.665 8.743 1.3z"/><path d="m301.284 455.789c-2.467-1.514-5.648-.994-7.722 1.026-8.555 8.329-15.685 3.452-17.032 2.387-2.522-2.115-6.282-1.781-8.393.745l-.283.338c-2.235 2.674-1.713 6.708 1.151 8.695 5.215 3.618 9.607 5.218 14.608 5.218 5.799 0 12.418-2.152 18.87-8.498 2.852-2.807 2.465-7.662-1.199-9.911z"/></g></svg>