<?xml version="1.0" encoding="utf-8"?>
<!-- Generator: Adobe Illustrator 27.0.0, SVG Export Plug-In . SVG Version: 6.00 Build 0)  -->
<svg version="1.1" id="Layer_1" xmlns="http://www.w3.org/2000/svg" xmlns:xlink="http://www.w3.org/1999/xlink" x="0px" y="0px"
	 viewBox="0 0 300 293.8" style="enable-background:new 0 0 300 293.8;" xml:space="preserve">
<style type="text/css">
	.st0{fill:#B2D235;}
	.st1{fill:#EB008B;}
	.st2{fill:#FFFFFF;}
	.st3{fill-rule:evenodd;clip-rule:evenodd;fill:#FFEC5F;}
	.st4{fill-rule:evenodd;clip-rule:evenodd;fill:#F6931D;}
	.st5{fill-rule:evenodd;clip-rule:evenodd;fill:#EB008B;}
	.st6{fill-rule:evenodd;clip-rule:evenodd;fill:#160D48;}
	.st7{fill-rule:evenodd;clip-rule:evenodd;fill:#2E3191;}
	.st8{fill:#160D48;}
	.st9{fill:#FFF100;}
	.st10{fill:#2A1C68;}
</style>
<g>
	<path class="st0" d="M282.2,293.8H83.3c-9.3,0-16.9-7.6-16.9-16.9V225h1.4v51.8c0,8.6,7,15.5,15.5,15.5h198.9
		c8.6,0,15.5-7,15.5-15.5v-46.9h1.4v46.9C299.2,286.2,291.6,293.8,282.2,293.8"/>
	<path class="st1" d="M134.5,203.8h49.9c2.8,0,5,2.2,5,5v23.8c0,2.8-2.2,5-5,5h-49.9c-2.8,0-5-2.2-5-5v-23.8
		C129.5,206,131.7,203.8,134.5,203.8"/>
	<path class="st2" d="M197.7,203.8h27.8c2.8,0,5,2.2,5,5v23.8c0,2.8-2.2,5-5,5h-27.8c-2.8,0-5-2.2-5-5v-23.8
		C192.7,206,194.9,203.8,197.7,203.8"/>
	<path class="st0" d="M300,208.8v23.8c0,2.8-2.2,5-5,5h-56.2c-2.8,0-5-2.2-5-5v-23.8c0-2.8,2.2-5,5-5H295
		C297.8,203.8,300,206,300,208.8"/>
	<path class="st3" d="M277.4,79.1c0,43.7-35.4,79.1-79.1,79.1c-43.7,0-79.1-35.4-79.1-79.1c0-43.7,35.4-79.1,79.1-79.1
		C242,0,277.4,35.4,277.4,79.1"/>
	<path class="st4" d="M265.6,79.1c0,37.2-30.1,67.3-67.3,67.3c-37.2,0-67.3-30.1-67.3-67.3c0-37.2,30.1-67.3,67.3-67.3
		C235.5,11.8,265.6,41.9,265.6,79.1"/>
	<path class="st5" d="M252.5,79.1c0,29.9-24.3,54.2-54.2,54.2c-29.9,0-54.2-24.3-54.2-54.2s24.3-54.2,54.2-54.2
		C228.3,24.9,252.5,49.1,252.5,79.1"/>
	<path class="st6" d="M235.8,67.1L235.8,67.1c-0.7,0.3-3.5,1.8-3.8,3.1c0,0,0.1,0.7-1.2,2c0,0-1.1,1.3-1.5,2.9c0,0-0.1,0-0.1,0.2
		l0,0.1l-0.2,0.3l-0.1,0.1l-0.1,0.2l0,0.2l0,0.1l0,0.1l-0.1,0.2l-0.2,0.1l-0.2,0.1l-0.2,0.1l-0.2,0.2l-0.1,0.1l-0.1,0.1l-0.2,0.1
		l-0.2,0l-0.2-0.2l-0.2-0.1l-0.1-0.1l-0.3-0.3c0,0,0-0.1-0.1-0.1c0-0.1,0-0.2,0-0.2s0-0.2,0-0.3c0-0.1,0-0.1,0-0.2
		c0-0.1,0-0.3,0-0.3l0-0.4c0,0,0-0.1,0-0.2c0-0.1,0.9-0.5,1.5-0.8c0,0,0.3-0.1,0.4-1c0-0.1,0-0.3,0.2-0.9c0,0,0.1-1.1,0.3-1.8
		c0,0,0-0.5,0.1-0.8l0-0.2c0,0,0.2-0.4,0.1-0.8l-0.1-0.2l0-0.4c0,0,0-0.2,0.1-0.3c0-0.1,0-0.1,0-0.1l0-0.2l0-0.2L229,67l-0.1-0.3
		c0,0-0.1-0.1-0.1-0.1c0-0.1,0-0.2,0-0.2l0.1-0.3c0,0,0-0.1,0-0.1c0-0.1,0-0.1,0-0.2c0-0.1,0-0.4,0-0.4l0-0.1l-0.1-0.1l-0.1-0.2
		l-0.1-0.1l-0.1-0.1l-0.2-0.2l-0.1-0.1l-0.2-0.3l-0.2-0.4l0-0.1l0.1-0.3l0-0.2l-0.1-0.2l-0.2-0.4l-0.5-0.1l-0.8-0.1l-0.1,0l-0.2,0
		l-0.3,0l-0.4,0l-0.3-0.1l-0.2-0.1l-0.3,0.1c0,0,0,0-0.1,0c-0.1,0.1,0,0-0.1,0.1c-0.1,0.1-0.4,0.3-0.4,0.3l-0.3,0.1
		c0,0-0.1,0-0.2-0.1c-0.1-0.2-0.1-0.2-0.1-0.2s-0.1,0-0.2,0c-0.1,0-0.4,0.1-0.4,0.1l-0.4,0c0,0,0-0.1-0.1,0c-0.1,0-0.1,0.1-0.1,0.1
		L222,63c0,0-0.3,0.1-0.4,0.1c-0.1,0-0.1,0-0.1,0s-0.1,0-0.1,0.1c0,0.1-0.3,0.2-0.3,0.2l-0.1,0c0,0,0,0-0.1,0.1
		c0,0.1-0.2,0.2-0.2,0.2s0,0.1,0,0.1c0,0.1-0.3,0.3-0.3,0.3s0-0.1-0.1,0.1c-0.1,0.2-0.1,0.3-0.1,0.4c0,0,0.1,0,0.1,0.1
		c0,0.2-0.4,0.2-0.4,0.2l-0.1-0.1c0,0,0-0.1-0.1-0.1c-0.1,0-0.2-0.1-0.3,0.1c-0.2,0.2-0.1,0-0.2,0.2c-0.1,0.2-0.1,0.2-0.1,0.2
		s-0.2,0-0.4,0.3c-0.2,0.3,0,0.4,0,0.6c0,0.2,0.2,0.2,0,0.3c-0.2,0.1-0.3,0-0.4,0.2c-0.2,0.2-0.3,0.1-0.2,0.3
		c0.1,0.2,0.1-0.1,0.1,0.2c0,0.2-0.5,0.3-0.5,0.5c0.1,0.2,0.3,0.4,0.4,0.5c0,0.1-0.3,0.1-0.2,0.3c0.1,0.2,0.2,0.2,0.3,0.4
		c0,0.1-0.4,0.1-0.2,0.3c0.2,0.3,0.4,0.2,0.2,0.4c-0.2,0.2-0.1-0.2-0.2,0.2c0,0.4,0.1,0,0,0.4c-0.1,0.3-0.2,0.3-0.1,0.5
		c0.1,0.2-0.1,0,0.1,0.2c0.2,0.2,0.1,0.2,0.2,0.2c0.1,0-0.3,0.2,0.1,0c0.4-0.2,0.8-0.3,0.8-0.2c0,0.2-0.6,0.6-0.6,0.6
		s-0.1,0-0.1,0.1c0,0.1-0.1,0.4,0,0.5c0.1,0.1,0.6,0.2,0.4,0.5c-0.2,0.2-0.1,0.1-0.2,0.2c-0.1,0.2-0.2,0.1-0.1,0.3
		c0.1,0.2,0.2-0.2,0.1,0.2c-0.1,0.4-0.3,0.3-0.1,0.5c0.1,0.2,0,0.2,0.2,0.3c0.2,0.1,0.4-0.1,0.3,0.1c0,0.2,0,0.4,0,0.4
		s0.1-0.1,0.2,0c0.1,0,0,0,0.2,0c0.2,0.1,0.2-0.1,0.2,0.1c0.1,0.1,0,0.2,0.1,0.2c0.1,0.1-0.2,0.1,0.2,0.1c0.4,0,0.4,0,0.4,0L220,75
		l-0.4,0.4c0,0-0.3-0.1-0.9,0.1c0,0-1.7,0.3-2.5,0.4c0,0-0.5,0.1-0.7,0.2c0,0-0.7-0.2-1,0.1c0,0-1-0.4-1.7,0l0,0l0,0
		c-0.2-0.8-0.4-1.3-0.4-1.3c-0.3-0.7-2.1-5.3-2.1-5.3c-0.5-1.3-2.4-5.6-2.4-5.6c-0.2-0.7-0.6-1.6-0.6-1.6c-0.2-0.4-0.8-1.9-0.8-1.9
		c-0.3-0.6-0.2-0.8-0.2-0.8c0.1-0.7-0.2-2.2-0.2-2.2c-0.1-0.4,0-0.9,0-0.9c0.3-0.3,0-0.8,0-0.8c0.3-0.1,0.3-0.5,0.3-0.5
		c0.1-0.2,1.3-0.2,1.3-0.2c0.2,0.1,0.6,0,0.6,0c0.3-0.2,0.6-0.2,0.6-0.2c0.5,0.1,0.9-0.5,0.9-0.5c0.8-0.2,0.5-0.9,0.5-0.9
		c0-0.3,0.5-0.9,0.5-0.9c0.2-0.7-0.1-1.7-0.1-1.7c0.4-0.3,0.2-1,0.2-1c0.4-0.3,1-0.7,1-0.7c1-0.7,1.8-1.3,1.8-1.3
		c0.4-0.2,0.3-0.5,0.3-0.5c0.3-0.2,1-0.3,1-0.3c0.9-0.4,1.1-0.3,1.1-0.3c0.2,0.2,0.8,1.2,0.8,1.2c1.1,1.8,2.6,4,2.6,4
		c0.8,0.9,2.2,3.7,2.2,3.7c0.3,0.8,0.7,1.3,0.7,1.3c0.8,0.7,2.2,1.6,2.2,1.6c1.8,1.2,4.6,3.2,4.6,3.2c2.7,1.7,5.3,3.8,5.3,3.8
		c0.6,0.4,0.7,0.9,0.7,0.9C235.3,66.8,235.5,67,235.8,67.1 M212.1,94.6L212.1,94.6c-0.1,0.4-0.3,0.8-0.5,1.2c0,0-0.3,0.7-0.3,0.9
		l0.1,0.2c0,0-0.3,1.4-0.5,1.7c0,0-0.3-0.1-0.4,0c-0.1,0.2-0.2,0.2-0.1,0.4c0.1,0.2,0.2,0.2,0.1,0.3c-0.2,0.1-0.3-0.2-0.3,0.1
		c0,0.3,0,0.3,0,0.3c-0.1,0-0.2,0-0.2-0.1v0l0-0.2c0,0,0-0.1,0-0.1l0,0l-0.4-2.3l-0.5-2.9l-0.9-3.8l-1.6-6.8c-0.2-1.1-0.6-3-0.6-3
		l-0.1-0.4c0.4-0.4-0.1-1-0.1-1l0-0.8c0.3,0.5,1,1.6,1,1.6c0.2,0.9,1.8,4,1.8,4c0.6,1,1,1.1,1,1.1l0.1,0.5c0.1,0.5,0.2,1,0.2,1
		c-0.2,0.7,0.1,0.7,0.1,0.7c0.3,0.4,0.5,1.1,0.5,1.1c0,0.8,0.3,1,0.3,1c0.4,0.5,0.4,1.4,0.4,1.4C211.2,92.1,211.7,93.6,212.1,94.6z
		 M208.4,103L208.4,103L208.4,103L208.4,103L208.4,103z M192.9,67.9L192.9,67.9c0,0,0,0.9-0.1,1.4c0,0-0.1,0.6-0.1,1c0,0,0,0,0,0.1
		c0,0.4-0.1,1.2-0.3,1.4c0,0-1.6-1.4-2.3-2.3c0,0-1.5-1.8-2-2.1c0,0-0.6-0.4-0.9-0.5c0,0,0.9-0.1,1.5-0.1l1.3,0.1
		c0,0,0.3,0.2,1.3,0.3c0,0,1.6,0.1,1.8,0.2C192.9,67.5,192.8,67.7,192.9,67.9z M198.2,84.1c0.4,0.1,0.7,0.3,1.1,0.4
		c0.1,0.1,0.3,0.1,0.4,0.2l-0.1-0.1l-0.1-0.2l-0.2-0.2l-0.2-0.2l-0.1-0.2c0,0-0.1-0.1-0.1-0.2c0,0-0.1-0.2-0.1-0.2l-0.1-0.1l-0.1,0
		l-0.1,0L198.2,84.1z M182.9,84.9c0.6,0.3,1.1,0.7,1.6,1.1c1.6-1.2,3.5-2.1,5.5-2.6l0.6-0.1l0.6,0c0.2,0,0.4,0,0.6,0l-2.2-2.5
		c0,0-2.3-2.3-5.6-6.7c0,0-3.5-5.2-4.2-5.6c0,0-0.5-0.5-1-1.3c0,0.6-0.1,1-0.1,1c0.2,0.4,0.2,1,0.2,1c0.2,1.2,0.5,1.7,0.5,1.7
		c0.6,1,0.3,1.9,0.3,1.9l0.6,1.4c1,2.2,1.9,6.9,1.9,6.9C182.4,82.3,182.7,83.7,182.9,84.9z M80.9,199.5v0.2l0,0.2
		c0,1.3-0.2,2.6-0.5,3.9h40.9c2.8,0,5,2.2,5,5v23.8c0,2.8-2.2,5-5,5H69.3c-17,0-31.5-9.1-37.1-22c-1-1.5-1.9-3.2-2.6-5
		c-1.9-5-2.1-10.3-0.8-15.3c1.2-3.5,3.1-6.8,5.4-9.6c1.6-1.9,3.4-3.5,5.3-4.9c-1.2-1.2-2.3-2.7-3.2-4.3c-1.2-2.2-2.3-5-2.5-7.6
		l0-0.4l0-0.4c0.1-8.9,0.1-17.9,0.1-26.8V141l0-0.3c0.2-2.6,1.2-5.4,2.4-7.7c1.7-3.1,4-5.5,6.7-7.2c-8.1-0.7-14.7-6.8-16.7-15.5
		l-0.2-0.9L26,80.4l0.1-0.6c0.3-2.5,1.3-5.2,2.4-7.3c0.1-0.1,0.1-0.2,0.2-0.3c-1.2,0.3-2.4,0.5-3.5,0.6c-1.6,0.1-3.3,0.1-4.8-0.2
		C15,71.7,10,69.4,6.1,65.3c-1.3-1.4-2.7-3.1-3.6-4.9c-2.6-3.3-3.1-7.9-1.7-11.8l3-8.1l1.7,1c1.8-3.3,4.6-5.7,8.3-6.6
		c4.8-1.2,9.6-0.1,12.9,3.9c1.4,1.7,2.4,4,2.8,6.2c0.8,4.5-1.2,8.4-4.4,10.3c0.6,0.3,1.4,0.6,1.9,0.2c3.4-2.4,7.2-4.3,11.2-5.4
		c1.5-0.4,3.2-0.8,4.8-0.9c1.7-0.3,3.5-0.3,5.1-0.2c2.1,0,4.3,0.5,6.2,1.3c5,2.2,8.1,6.7,9,12.3l0.1,0.7v6c0.8-0.5,1.6-1,2.3-1.4
		c5-2.6,10.5-2.8,15.8-1.2c0.1,0,0.2,0.1,0.3,0.1l1.1-0.3c4.6-1.4,9.7-1.7,14.1,0.5c1.6-0.8,3.3-1.3,5.1-1.5c1.9-0.2,4-0.2,5.9,0.2
		c3.2,0.7,6.4,2,8.8,4.2c2.8-3.3,6.4-5.5,10.6-6.5l0.6-0.1l0.6,0c3.5-0.3,7.8,0.4,11,1.8c1.4,0.6,2.6,1.4,3.7,2.3
		c2.2-1.8,4.9-3.1,7.7-3.9l0.6-0.2l0.6-0.1c3.5-0.3,7.8,0.3,11,1.7c5.1,2.2,8.6,6.6,9.1,12.5l0,0.4v0.4l0.1,5.2
		c0.2,0,0.3,0.1,0.5,0.1c0.2-0.1,0.4-0.1,1.4-0.2l0.1,0c1.4-0.2,2.8-0.1,4.1,0.1c-0.3-0.7-0.5-1.1-0.5-1.1c-0.3-0.9-1-1.4-1-1.4
		c-1.2-1.6-1.5-5.6-1.5-5.6c-0.1-1.3-0.5-1.8-0.5-1.8c-0.6-1.2-1.3-3.4-1.3-3.4c-0.6-1.5-2-4.2-2-4.2c-1.8-3.7-3.6-8.8-3.6-8.8
		c-0.9-0.3-3.3-1.2-3.3-1.2c-1,0.7-2.9,0.6-2.9,0.6c-1.7,0-5.1,0.1-5.1,0.1c-3.1-0.2-4.6,0.1-4.6,0.1c-2.4,0.7-3.6,0.3-3.6,0.3
		c-1.3-0.5-2-0.1-2-0.1c-2.4,0.5-5.7,0-5.7,0c-4.7-0.7-5.7,0-5.7,0c-0.8,1.1-1.6,0.5-1.6,0.5c-0.7-0.5-2.1-1.1-2.1-1.1
		c-1.1-0.5-2.1-0.2-2.1-0.2c-1.4,0-1.7-0.5-2.1-0.9c-0.4-0.3-0.2-0.6-0.2-0.6l0.5-0.2l0-0.3c1.4-1,2.4-0.8,2.4-0.8
		c1,0.4,2.8,1,2.8,1c0.8,0.3,2.3-0.3,2.3-0.3c2.1-0.3,7.6-1.5,7.6-1.5c4.2-0.8,5.9-0.1,5.9-0.1c0.6,0,2.3-0.8,2.3-0.8
		c0.6-0.6,2-1,2-1c1.2-0.4,4.4-1.2,4.4-1.2c1-0.6,1.7-0.3,1.7-0.3s0.2-0.2,0.3-0.4c0.2-0.2-0.1,0.2,0.2,0c0.3-0.2,0.4,0,0.5-0.3
		c0.1-0.3,0.1-0.1,0.3-0.1c0.1,0,0,0,0.4-0.3c0.4-0.3,0.1,0,0.2,0c0.1,0,0.2-0.1,0.3-0.5c0.1-0.4,0.1-0.1,0.2-0.1
		c0.1,0,0.2-0.1,0.3-0.5c0.1-0.4,0.2-0.1,0.3-0.3c0.1-0.3,0.1,0,0.2-0.1c0.1-0.1,0-0.1,0-0.3c0-0.2,0.1,0,0.2,0
		c0.2,0,0.2-0.2,0.1-0.4c-0.1-0.2,0.1-0.3,0.2-0.3c0.1,0,0.2-0.3,0.2-0.4c0-0.1,0-0.4,0.1-0.5c0.1-0.1,0-0.2,0-0.4
		c-0.1-0.2,0.1-0.3,0.3-0.4c0.2-0.1-0.3-0.4-0.3-0.4c-0.1-0.2,0-0.4,0-0.4c0-0.3,0-0.3,0-0.3c-0.4-0.2-0.1-0.6-0.1-0.6
		c0.1-0.2-0.2-0.5-0.2-0.5c-0.2-0.3-0.3-0.6-0.3-0.6c0.1-0.4-0.3-1.2-0.3-1.2c-0.5-0.3-0.5-0.7-0.5-0.7c-0.3-0.1-0.4-0.5-0.4-0.5
		c-0.2-0.4-0.5-0.4-0.5-0.4s0.2,0,0-0.1c-0.2-0.1,0-0.5,0-0.5c-0.8-0.8-1.3-1.8-1.3-1.8c-1.1-0.5-2.9,0.7-2.9,0.7
		c-2.5,1.4-4.9,1.7-4.9,1.7c-2,1.3-3.9,1.2-3.9,1.2c-1,0.1-3.1,0.6-3.1,0.6c-2.1,0.4-3.9,0.3-3.9,0.3c-1.7,0.5-2.3,1.1-2.3,1.1
		c-1.1,0.4-1.6,0-1.6,0c-0.8,0.1-1.2,0.5-1.2,0.5c-0.7,0.3-0.9-0.4-0.9-0.4c-0.1-0.2,0.6-0.4,0.6-0.4l-0.2,0
		c-0.3-0.1-0.5-0.1-0.5-0.1c-0.6,0.1-1-0.1-1-0.1c-0.4,0-1.3,0-1.3,0c-1-0.1-1-0.7-1-0.7l0.5,0c0,0,0.1-0.1,0.1-0.1
		c0.4,0,0.9,0.1,0.9,0.1c0.7,0.1,2.1-0.2,2.1-0.2c0.6-0.1,1.5-0.3,1.5-0.3C138.7,39,141,38,141,38c3.8-1.1,5.3-2.1,5.3-2.1
		c1.5-0.9,2.8-1,2.8-1c0.7,0.1,2.1-0.1,2.1-0.1c1-0.4,2.4-0.7,2.4-0.7c1.5-0.2,2.6-1.4,2.6-1.4c1.6-1.5,3.3-1.6,3.3-1.6
		c1.2-0.3,1.7-0.5,1.7-0.5c0.2-0.4,1.2-1.1,1.2-1.1c1.4-1.3,1.4-2.5,1.4-2.5c0.1-0.5-0.1-0.9-0.1-0.9c-0.2,0.3-0.5,0.3-0.5,0.3
		c-0.4,0.7-1.1,0.5-1.1,0.5c-0.6,0.5-1.1-0.3-1.1-0.3c-1.9-1.2-1.3-3.2-1.3-3.2c0.3-0.8,1.2-0.8,1.2-0.8c-0.4-1,0-1.4,0-1.4
		c-0.1-0.1-0.2-0.6-0.2-0.6c0.3-3,1.7-4,1.7-4c1.7-1.4,4-1.3,4-1.3c1.6,0,2.3,1.2,2.3,1.2c0.3,0.1,0.5,0.4,0.5,0.4
		c0.3,0.4,1.2,1.6,1.2,1.6c0.4,0.5,0.2,1,0.2,1c-0.3,0.2,0.1,0.5,0.1,0.5l1.1,1.1c0.4,0.4,0.1,0.7,0.1,0.7c-0.1,0.1-0.6,0.4-0.6,0.4
		c-0.2,0.1,0.1,0.4,0.1,0.4c0.3,0.2,0.1,0.4,0.1,0.4c-0.2,0.1-0.3,0.2-0.3,0.2l0,0.2c0.3,0.1,0.1,0.5,0.1,0.5
		c-0.3,0.2,0.3,0.8,0.3,0.8c0.3,0.6-0.5,0.9-0.5,0.9c-0.8,0.3-2.2,0.2-2.2,0.2c-0.5,0.2,0,1.4,0,1.4c0.4,0.5,2.5,0.4,2.5,0.4
		l0.1-0.1l0.9,0l0.1,0.1c1.5-0.1,2.1,0.2,2.1,0.2c0.9,0.4,1.3,2,1.6,3.1c0.3,1.1,0.2,2.3,0.2,2.3c0.3,1.7,1.6,4.8,1.6,4.8
		c0.2,0.8,0.8,1.2,0.8,1.2c0.9,0.8,1,1.7,1,1.7c0.5,1.5,2.7,4.6,2.7,4.6c0.7,1.1,1.6,2,1.6,2c0.5,0.1,1.6,0.8,1.6,0.8
		c0.3,0.2,0.4,0.4,0.4,0.4l0.4,1.1c0.2,0.5,0.8,1.6,0.8,1.6s-0.1-0.2,0,0.1c0.1,0.3-0.2,0.4-0.2,0.4c0.3,0.4,0,0.5,0,0.5
		c-0.3,0.3-0.6,0-0.6,0c0.1,0.2,0,0.5,0,0.5c-0.3,0.2-0.6,0-0.6,0l-0.5-0.6c0.3,0.4,0,0.5,0,0.5c-0.3,0.2-0.4,0-0.4,0
		s-0.5-0.4-0.6-0.5c0-0.1-1.2-1.2-1.2-1.2c-0.9-1-1.1-1.8-1.1-1.8c-0.2-0.9-0.9-1.4-0.9-1.4c-1-0.9-3.4-3.8-3.4-3.8
		c-1.6-1.9-2.2-3.2-2.2-3.2l-0.1,1.9c0,1.3-0.1,5.4,0.1,6c0.2,0.5,0.2,0.7,0.3,0.9c0.1,0.2,0,0.7,0.3,0.9c0.3,0.3-0.3,0.7-0.2,0.9
		c0.1,0.2-0.1,0.5,0.1,0.8c0.2,0.3,0,0.6,0.2,1.2c0.3,0.6,0.1,0,0.2,0.4c0.1,0.4,0.1,0.9,0.1,0.9c0.3,0.4-0.3,0.5-0.3,0.5l0.4,1.1
		l0.9,2.8l1.2,4.5c0-0.2,0.4-1.9,3.5-2.7c0,0,6.4-2.4,10.7-2.8l-0.2-0.4c0,0-0.1-0.2,0.1-0.3l0,0l-0.1-0.5c0,0-0.3-0.1-0.1-0.5
		l0-0.1c0,0-0.5-0.2-0.3-0.6c0,0-1.5-2.8-2.3-6.6c0,0-0.5-1.7-0.9-2.4c0,0-1.1-3.1-0.5-5.4c0,0,0-0.4,0.4-1.2c0,0-0.2,0-0.3-0.4
		c0,0,0-0.2,0.4-0.3c0,0-0.1-0.2,0.2-0.4c0,0,0.2-0.2,0.2-0.4c0,0,0.6-1.1,0.4-2.5c0,0-0.1-0.1-0.1,0c0,0-0.1-0.4-0.3,0
		c0,0-0.2,0.1-0.3-0.2c0,0-0.3-0.4-0.2,0.1c0,0-0.3-0.3-0.3-0.8c0,0-0.2-1.4-0.4-1.9c0,0-0.4-0.6-0.6-1.7c0,0,0.1,0,0-0.4
		c0,0-0.3-0.3-0.3-0.6c0,0,0.1-0.1-0.2-0.6c0,0,0.2-0.1,0-0.4c0,0-0.4-0.9-0.2-2c0,0,0.2-0.9,0.6-1.3c0,0,0.1-0.5,0.4-0.9
		c0,0,1.1-0.9,2.3-1.2l0.1,0c1.2-0.2,1.3,0,1.8,0.3c0,0,1.1-0.8,2-0.3c0,0,0.8,0.3,1.3,1.1c0,0,0,0.1,0.1,0.1c0.5,0.9,0.7,0.8,0.5,2
		c0,0,0.3,0.9,0.2,1.3c0,0,0,0.5-0.1,0.6l0.2,0.1l0.1,0.5l0.1,0.8c0,0-0.1,0.2-0.5,0.5l0,0.1c0,0,0.2,0.5,0.3,1c0,0,0.1,0.5,0,1
		c0,0,1-0.5,1.2-1.1c0,0,0.9-1.7,2.1-3.4c0,0,1-1,1.1-2.1c0,0,0.5-2,1.3-3c0,0,1.7-2.9,2-3.9l0.6-1.8c0,0-0.2-0.1-0.1-1.2
		c0,0,0-0.1,0.1-0.2c0,0,0.1-0.1,0.2-0.1c0,0,0.1-0.1,0.5-0.3c0,0,0.5-0.6,0.3-2.2c0,0-0.5-1.4-0.7-1.6c0,0-0.1,0,0-0.6l0.1-0.3
		c0,0-0.3-0.3-0.1-0.5l0.2-0.1c0,0-0.2,0,0-0.3l0.2-0.8c0,0,0-0.2,0.2-0.2l0.4,0c0,0,0.3-0.3,0.7-0.3c0,0,0.6,0,0.7,0.1
		c0,0,0.7,0,0.6,0.6c0,0,0.3,0.2,0.3,0.4c0,0,0.1,0.4,0.4,0.5c0,0,0.4,0,0.2,0.6l0.2,0.6c0,0,0.1,0,0.3,0.1c0,0,0.3,0.1,0.2,0.5
		l-0.1,0.1c0,0,0.5,0.6,0.5,1.7c0,0,0.1,1.8,0.6,4c0,0,0.2,1,0.5,1.9c0,0,0.4,0.9,0.3,2.6c0,0-0.1,1.2,0,2c0,0,0.2,1.4,0.3,2.4
		c0,0,0,1.4,0.8,3.1c0,0,1.1,1.9,1.1,2.6c0,0,0.5,0.1,0.7-0.5c0,0,0.3-0.7,0.7-1.1c0,0,0-0.3,0.3-0.6c0,0,0.3-0.4,0.5-1
		c0,0,0.1-0.8,0.8-1.1c0,0,0.2-0.1,0.3,0.1c0,0,0.5-0.2,0.8-0.5c0,0,1.3-1.4,3-1.8c0,0,1.2-0.5,2.3,0.6c0,0.1,0.6,0.3,1.6,1.2
		c0,0,1.7,1.9,0.6,4.1c0,0-0.3,0.7-0.8,1.1c0,0-0.9,1.5-1.3,1.8c0,0-0.4,1-1.3,1c0,0-1.1,1.8-2.3,1.9c0,0-0.9,0.1-1.4,0
		c0,0-0.5,0.1-0.5,0.5c0,0,0.6,1.1,0.7,1.7l0.1,0.2c0,0,0.5,0.6,0.8,1.5c0,0,1,1.1,1.6,2.9c0,0,0.7,2.9,2.6,5.8c0,0,0.8,1.6,1.7,2.4
		c0,0,2.6,2.7,3.4,3.6c0,0,4.8,5.2,6.8,6.5c0,0,1.4,1.1,3.1,1.6c0,0,0.7,0.3,1,0.7l0,0h0c1.2-0.5,2.1-1,2.1-1c0.8-1.2,4.6-3,4.6-3
		c1.9-0.7,4.3-1.6,4.3-1.6c0.8-1,1.6-1,1.6-1c0.6,0.1,0.6,0.5,0.6,0.5l0.3,0.1c0.3,0.2,0.4,0.5,0.4,0.5c0.2,0,0.5,0.1,0.5,0.1
		c0.3,0.3,0,0.8,0,0.8l0.3,0.1c0.2,0.5-0.6,1.1-0.6,1.1c-0.8,0.5-2,0.7-2,0.7c-0.3,0-0.4-0.2-0.4-0.2c-0.4,0-0.5-0.4-0.5-0.4
		c-0.4,0-2,1-2,1c-1,0.5-4.5,3.4-4.5,3.4c-0.2,0-0.4,0.2-0.6,0.3c0,0.1-0.1,0.2-0.3,0.2h0c-0.3,0.2-0.5,0.3-0.5,0.3l-0.2,0.2
		c0.2,0.1,0.3,0.2,0.5,0.3l0.3,0.2l-0.1,0c0,0,0,0.3-0.3,0.3c0,0-0.3-0.2-0.8-0.5l0,0l-3.8,2.5c-0.1,0.3-0.4,1.1-0.4,1.1
		c0.3,0.3,1.9,0.6,1.9,0.6c0.8,0.1,3,0.2,3,0.2c-0.3-0.9,0.1-1.4,0.1-1.4c0.2-0.4,0.5-0.9,0.5-0.9c0.3,0,0.1-0.4,0.7-0.5
		c0.3-0.1-1.4-0.4,0.5-1.9c0.5-0.4,2.8-0.9,4.1,0.9c0.5,0.6,0.5,1.4,0.7,1.5c1.8,0.8,2.4,1.9,2.4,1.9c1.1,1.7,0.1,4.3,0.1,4.3
		c0.3,0,1.1-0.1,1.1-0.1c0.5,0,4.6-0.8,4.6-0.8c2.4-0.4,3.7-0.7,3.7-0.7c1.4-0.3,2.2-0.2,2.2-0.2c1,0.2,2.7,0.4,2.7,0.4
		c0.4,0.1,0.7,0.2,0.7,0.2l0.3,0.4c0.2,0.2,1.2,0.8,1.2,0.8c0.4,0.3,1.4,0.7,1.4,0.7c0.3,0.2,0.1,0.5,0.1,0.5c-0.4,0.1-0.7,0-0.7,0
		c-0.7-0.2-1.9-0.7-1.9-0.7c0.4,0.4,1.6,1,1.6,1c0.7,0.1,0.1,0.5,0.1,0.5c-0.8,0.3-1.6-0.5-1.6-0.5c-0.2,0.9,0.4,2,0.4,2
		c0,0.4-0.5,0.1-0.5,0.1l-0.4-1c0.1,0.3-0.1,0.5-0.1,0.5c-0.5,0.2-1.4-1.2-1.4-1.2c-0.4-0.6-1.3-0.7-1.3-0.7
		c-0.4-0.1-1.2-0.8-1.2-0.8c-0.9-0.5-2.2,0.6-2.2,0.6c-2.4,1.4-5.2,2.2-5.2,2.2c-2,0.4-6.7,0.9-6.7,0.9c-0.3,0.3-1.4,0.4-1.4,0.4
		c-1.3,0.2-1.7,0.1-1.7,0.1l-0.4-0.2c-0.3,0-1.4,0.6-1.4,0.6c-0.6,0.3-0.7-0.7-0.7-0.7c0-0.3-0.5-0.1-0.5-0.1c-0.4-0.1-1-0.1-1-0.1
		l-0.7,0.4c-0.9,0.5-1.4,1.1-1.4,1.1c-0.3,0.3-1.4,2.7-1.4,2.7c-0.5,1.3-2.8,0.7-2.8,0.7l-0.7,0.6l0.4,0.5c0.6,0.7,1.2,2.6,1.2,2.6
		c0,0.7,0.5,1.4,0.5,1.4c0.5,0.7,0.5,2.4,0.5,2.4c2.8,1.2,9.1-0.2,9.1-0.2c1.1-0.2,1.2,0.4,1.2,0.4c1.2,2-0.3,5.9-0.3,5.9l2.5,0.5
		c2.2,0.6,4.2,0.5,4.2,0.5c1.2-0.1,2.7-0.1,2.7-0.1c1.4,0.1,3.3,0.6,3.3,0.6c1.8,0.4,4.1,0.9,4.1,0.9c1.2,0.6,1.1,1.4,1.1,1.4
		c-0.3,1.1-1.8,1.4-1.8,1.4c-1.8,0.1-3.7-0.1-3.7-0.1c-1.6-0.2-1.4,0.4-1.4,0.4c-0.3,0.6-1.1,0.7-1.1,0.7c-1.4,0.2-1.7-0.9-1.7-0.9
		c-0.1-0.6-1.1-0.9-1.1-0.9c-2.4-0.5-5.6,0.5-5.6,0.5c-3.8,1-6.2-0.6-6.2-0.6l-2.1,0.7l-0.6,0.8l1,1.2c1.2,1.3,1.3,2.5,1.3,2.5
		c0.4,0.9,3.2,3.1,3.2,3.1c1.6,1.3,4,3.4,4,3.4c2.3,1.7,3.8,2.4,3.8,2.4c1,0.5,1.9,1.1,1.9,1.1c1.4,1.3,3.3,2.6,3.3,2.6
		c1.2,1.2,1.4,2.8,1.4,2.8c0.4,2.1-0.4,1.8-0.4,1.8c-0.4,0.2-1.2-0.4-1.2-0.4c-0.6,0.1-1.2-0.5-1.2-0.5c-0.6-0.4-0.8-1.2-0.8-1.2
		c-0.1,0-0.6-0.4-0.6-0.4c-1.2-0.6-3.3-0.2-3.3-0.2c-1.9-0.3-1.4-1.7-1.4-1.7c0.2-1.3-1.1-1.9-1.1-1.9c-1.8-1.6-6.6-3.3-6.6-3.3
		c-4.1-2.6-5.4-6.1-5.4-6.1c-0.7-1-1.6-1.3-1.6-1.3c-1.4-0.7-2.6-1.5-2.6-1.5c-0.7,0-2.1,0.2-3.1,0.1c-1-0.1-0.8,0.2-1.2-0.2
		c-0.4-0.4-1.1-0.5-1.6-0.7c-0.6-0.1-0.6-0.4-0.7-0.2c-0.1,0.2,0,0.5,0.1,0.7c0.1,0.2,0.1,0.7,0.1,0.7s-0.3,0.1,0.1,0.8
		c0.5,0.7,0.2,1,0.2,1.7c0,0.6,0.2,0.9,0.3,1.4c0.2,0.5,0.4,1,0.4,1c-0.1,1.2,0.1,1.4,0.1,1.4c0.8,5.9,0.1,8,0.1,8
		c0.6,0.5,0.5,2,0.5,2c0.5,1.1,0.2,2,0.2,2c0.4,0.8,1.1,1.7,1,3.1c-0.1,1.4,0.1,4.9,0.1,4.9c0.2,2.2,0.5,9.1,0.5,9.1l0,1.2l-0.2,0.1
		l-0.5,0l-0.6,0.2l-0.3,0.1c0,0,0.1,0.4,0.3,0.7c0.2,0.4,0.1,0.4,0.8,1.3c0.7,0.9,0.8,1.4,0.8,1.4c0.3,1.2-0.3,1.3-1,1.3
		c-0.7,0-2,0.1-2.8-0.3c-0.8-0.3-1.2-0.3-1.2-0.3l-0.1-1c0-1.8-0.1-2.5-0.1-2.5c-0.5,0-1.5-0.1-1.5-0.1s-0.8-0.2-1-0.2
		c-0.1,0-0.1-0.3-0.1-0.3s0-0.3,0-0.4c0-0.2,0-0.5,0-0.6c0-0.1-0.1-0.4-0.1-0.9c0-0.4-0.1-0.9-0.1-0.9s-0.1-3-0.1-3.3
		c0-0.3,0-0.6,0.1-1.6c0-1,0-0.9,0.1-1.4c0.1-0.5-0.2-1.1-0.2-1.6c-0.1-0.5-0.2-1.1-0.2-1.5c0-0.5,0-2,0-2.5c0-0.5,0.1-0.8,0.1-1.1
		c0-0.2-0.1-0.5-0.3-0.7c-0.2-0.2-0.2-0.5-0.2-0.8c0-0.3-0.2-0.7-0.2-0.7c-0.1-0.2-0.1-1.1-0.1-1.1l-0.2-0.6l-0.4-0.8
		c0,0-0.1-0.4-0.1-0.6c0-0.2,0-0.4,0-0.4l0-0.3c0,0,0-0.2,0-0.4c-0.1-0.2,0-0.4,0-0.4l-0.2-0.7l-0.1-1l-0.3-1.1l0-0.3
		c0,0,0-0.3,0-0.5c-0.1-0.2-0.1-0.3-0.1-0.3l0-0.5c0,0-0.1-0.8-0.2-0.9c-0.1-0.1-0.6-1.1-0.6-1.1s0.4,0.5,0-0.2
		c-0.4-0.6-0.8-1.8-0.8-1.8c-0.2-0.8-0.4-1.8-0.4-1.8c-0.2-0.4-0.8-1.1-0.8-1.1s0-1.4-0.7-0.7c-0.7,0.7-0.7,0.7-1,0.9
		c-0.3,0.2-3.4,3.6-3.6,3.9c-0.2,0.2-0.4,0.4-0.8,0.7c-0.4,0.3-1,0.9-1.6,1.4c-0.5,0.5-1.1,1.2-1.3,1.4c-0.3,0.2-0.5,0.4-0.7,0.5
		c-0.3,0.1-0.3,0.2-0.6,0.5c-0.2,0.2-0.4,0.4-0.6,0.6c-0.6,2-1.7,3.7-3.3,5.1c-0.3,0.3-0.6,0.5-0.9,0.7c-0.2,0.2-0.3,0.5-0.4,0.6
		c-0.2,0.3-1.2,2-1.5,2.4c-0.3,0.4-0.3,0.3-0.5,0.6c-0.2,0.2-0.2,0.2-0.4,0.5c-0.2,0.2-1,1.7-1.6,2.7c0.7,1.5,1.1,3.2,1.3,5l0,0.4
		v0.4l0.3,21.6l-6.7,0.1c1.8,0.9,3.3,2.2,4.4,3.8c5.4-4.5,12.7-7.8,19.2-8.7c9.7-1.3,19.7,4.6,22.7,14.7c2.7,9.5-0.2,22.5-10.8,24.4
		c-4,0.7-8.1,0.2-11.2-2.2c-1.7,1.1-3.6,1.7-5.6,1.8c-3.3,0.2-6.6-1-9-3.4l-0.3-0.3l-0.3-0.4c-0.8-1.1-1.5-2.3-1.9-3.6
		c-0.1,0.2-0.2,0.4-0.4,0.6c-0.3,0.6-0.6,1.1-0.9,1.7c-0.7,1.4-1.4,2.8-2.1,4.1c-1.2,2.1-2.6,4-4.1,5.9
		c-8.2,10.3-21.4,15.4-33.8,12.4c-2.7-0.7-5.3-1.7-7.8-3.2c-8.3-4.8-13.7-13.5-15.8-23.1c-0.9-0.5-1.7-1.1-2.5-1.8
		c-1.7,1.5-3.8,2.4-6,3c-2.4,0.6-4.5,0.7-7,0.8l-0.2,0l-0.2,0c-3.9,0-8.1,0-11.7-1.8c-2.2,1.3-4.8,1.9-7.4,1.7
		c-2.1-0.1-4.1-0.6-5.9-1.6l-1.5,0.2c-3.9,0.5-7.8,0.3-11.3-1.3c0,1,0,2,0,3C80.9,191,80.9,195.2,80.9,199.5z M207.2,21.7
		c0,0,0.2,1.2,0.3,1.7c0,0,0.1,1.4,0.2,4.4c0,0,0,3.3,0.7,5.9c0,0,0.3,1.2,0.2,1.5c0,0-0.7,1.3-0.9,1.6c0,0,0,0.2-1.4,1
		c0,0-2.8,1.3-4,2.8c0,0-0.8,1-1,2.3l0,0.8c0,0-1.1-1.7-1.6-2.9c0,0-0.8-2-1-2.4l0.2-0.3l0.1,0l0.1,0l0-0.2l0-0.1l0.2,0l0.3-0.1
		l0.1,0l0-0.2l0-0.2l0-0.1c0,0,0.9-0.8,1.7-2.4c0,0,0.6-1.7,0.9-2.2c0,0,0.9-1.6,1-2.2c0,0,0.1-0.8,0.5-1.3c0,0,0.6-0.5,0.7-0.8
		c0,0,0.2-1,0.6-1.6c0,0,0.9-1.8,1.2-3.4c0,0,0.3-1.8,0.5-2.8c0,0,0.2-1,0.4-1.4C207.2,19,207,20.4,207.2,21.7z"/>
	<path class="st7" d="M183.6,188.5L183.6,188.5c-3.9,5.2-9.5,8.4-15.7,9c-4.2,0.5-9.8-0.3-13.1-3.4c-3.2-3-6.3-7-7.4-11.5
		c-0.3-1.1-0.6-3.2-0.3-4.3l0.1-0.3c2.2,2.2,4.9,3.7,8,4.5l0.3,0.1l0.3,0c2.9,0.2,6.6-0.3,9.3-1.5c1.2-0.5,2.3-1.2,3.3-2.1
		c0.6-0.6,1.2-1.2,1.7-1.9c2.3,2.8,5.5,4.7,9.1,5.5l0.3,0.1l0.3,0c2.7,0.2,5.9-0.3,8.5-1.3C186.6,183.6,185.1,186.1,183.6,188.5
		 M15.9,49.1L15.9,49.1c-0.1,0-0.2-0.1-0.3-0.1l-0.1,0c0.1-0.1,0.3-0.2,0.4-0.3c0,0,0,0,0,0L15.9,49.1z M235.1,170.7
		c-2.4-8.3-10.8-13.1-18.7-12c-6.9,0.9-15,5-19.9,10.2c-0.4,0.4-0.7,0.8-1.1,1.3c-0.5-4.4-4-7.9-8.3-7.8c-1.7,0-3.3,0.6-4.6,1.6
		c0-2.7-0.1-5.4-0.1-8.1l12.9-0.2l-0.2-17.7v-0.3l0-0.2c-0.4-4.5-3-7.6-6.8-9.3c-2.7-1.2-6.4-1.7-9.3-1.4l-0.3,0l-0.3,0.1
		c-0.1,0-0.2,0.1-0.4,0.1l0-2.7l0-0.7l0.2,0c2.5-0.3,4.7-1.5,6.2-3.4c1.7,2.4,4.2,3.8,7.1,4l0,0c2.9,0.2,6.6-0.5,8.8-2.6
		c1.5-1.4,2.4-3.3,2.6-5.5l0-0.2V116c0-3.8-2.9-6.9-6.5-6.9c-0.5,0-1,0.1-1.5,0.2V108h8V95.3l0-0.2c-0.2-3.3-2.2-5.8-5-7
		c-1.9-0.8-4.4-1.2-6.4-1.1l-0.3,0l-0.3,0.1c-2.5,0.6-4.8,2-6.4,4.1c-2.3-3-5.8-4.6-9.6-4.1l0,0c-0.6,0.1-1.2,0.2-1.8,0.4
		c-0.8-0.3-1.6-0.4-2.4-0.4l-0.1,0h-1.7l-0.1-8.9v-0.3l0-0.2c-0.4-4.5-3-7.6-6.8-9.3c-2.7-1.2-6.4-1.7-9.4-1.4l-0.3,0l-0.3,0.1
		c-3.5,0.9-6.5,2.8-8.7,5.6c-1.2-1.9-2.9-3.3-5-4.2c-2.7-1.2-6.4-1.8-9.3-1.5l-0.3,0l-0.3,0.1c-4.4,1.1-8.2,3.7-10.5,7.9
		c-0.2,0.4-0.5,0.9-0.7,1.4c-0.1-0.2-0.2-0.4-0.3-0.6c-1.9-3.8-5.8-5.6-9.5-6.4c-1.4-0.3-3.2-0.3-4.7-0.2c-2,0.3-3.9,0.9-5.6,2.1
		c-0.2-0.2-0.5-0.4-0.8-0.5c-3.7-2.3-8.2-1.9-12.2-0.7l-2.2,0.7c-0.4-0.2-0.8-0.3-1.2-0.5c-4.4-1.3-9-1.2-13.2,1
		c-1.7,0.9-3.6,2.3-4.8,3.9l0,0l0,0c-1.2-0.2-1.7-0.3-1.7-0.3l-1.1-11.5l-0.1-0.3c-0.7-4.3-2.9-7.7-6.8-9.4c-1.5-0.6-3.3-1-4.9-1
		c-1.5-0.1-3.1-0.2-4.6,0.1c-1.4,0.1-2.9,0.4-4.3,0.8c-3.6,1-7,2.7-10.1,4.9c-2,1.4-4.1,0.9-6.1-0.3c-1-0.5-2-1.3-2.8-2.1
		c-0.1-1.3-0.4-2.6-0.9-3.8c4,0.6,7.4-2.4,6.6-6.9c-0.2-1.5-1-3.2-2-4.4c-2.4-2.9-5.8-3.6-9.2-2.7c-4,1-6.4,4.2-7.4,8.3l-1.6-0.9
		L4.2,50c-1,2.7-0.6,6,1.3,8.2c0.8,1.6,2,3.2,3.1,4.4C12,66.1,16.4,68,21,68.8c1.2,0.3,2.6,0.3,3.9,0.1c3.1-0.3,6.2-1.4,9-2.9
		c2.2-1.2,4.5-2.5,6.8-3.3c0.5-0.2,1.6-0.6,2.2-0.5c0.5,0.1,0.9,0.3,1.2,0.8c0.1,0.1,0.2,0.3,0.2,0.4l0,3.9l-2.1-0.1l-0.3,0
		c-4.4,0.5-7.9,3-10.1,7.1c-0.9,1.7-1.7,4-2,5.9l0,0.3l0.2,28.3l0.1,0.4c1.9,8.2,8.6,13.4,16.6,12.5l0,0c0.9-0.1,1.7-0.4,2.6-0.6
		c0.2-0.1,0.4-0.1,0.6-0.2c1.2,0.5,2.7,0.8,3.9,0.8l0.1,0h7.1c0.3,0.2,0.5,0.5,0.6,0.9v6.5c-0.5-0.3-1-0.6-1.5-0.8
		c-2.7-1.2-6.4-1.7-9.3-1.5l-0.3,0l-0.3,0.1c-4.4,1.1-8.2,3.7-10.5,7.9c-0.9,1.7-1.8,4-1.9,6l0,0.2v0.2c0,8.9,0,17.9-0.1,26.8l0,0.2
		l0,0.2c0.2,2,1,4.3,2,6c2.3,4.2,6.1,6.8,10.5,7.9l0.3,0.1l0.3,0c2.9,0.2,6.6-0.3,9.3-1.5c0.5-0.2,1-0.5,1.5-0.8v22.4l0,0.1
		c0,0.2,0,0.4,0,0.6c-1.5-1.1-3.3-1.7-5.2-1.7c-0.1,0-0.2,0-0.3,0c1.4-2.8,1.4-6.3,0.2-9.2c-1.8-4.5-5.8-7-10.3-7.1
		c-1.6-0.1-3.5,0.2-5,0.8c-3.7,1.4-6.4,4.5-7.8,8.4c-1.8,4.8-1.9,9.9,0,14.7c3.1,7.9,10.6,13.3,18.6,13.9c4.3,0.3,8.9-0.6,12.8-2.4
		c5.3-2.5,9-7,11.1-12.7c0.9-2.5,1.7-5.6,1.8-8.2l0-0.1v-0.1c0-8.1,0-16.1-0.1-24.2c0.1,0.3,0.3,0.5,0.4,0.7c3.2,4.9,8.9,5.7,14.1,5
		l2.7-0.4c1.6,1.1,3.4,1.6,5.3,1.7c2.7,0.1,5.2-0.7,7.1-2.5c3.2,2.6,7.9,2.6,11.7,2.5h0.1l0.1,0c2.2-0.1,4.2-0.1,6.3-0.7
		c1.9-0.5,3.7-1.3,5.1-2.7c0.9-0.9,1.6-1.9,2-3.1c0.2,1,0.7,2,1.3,2.7c1.1,1.4,2.5,2.3,4.1,2.8c1.6,9.3,6.5,17.9,14.4,22.5
		c2.2,1.3,4.5,2.2,6.9,2.8c11.1,2.7,22.9-1.9,30.2-11.1c1.4-1.7,2.7-3.5,3.8-5.5c0.7-1.3,1.4-2.6,2-3.9c0.3-0.7,0.7-1.3,1.1-2
		c1.3-2.2,2.7-4.5,4.2-6.5c0.9-1.2,2-2.5,3.3-3.2c1.2-0.7,2.6-0.8,4-0.8c0.5,0.1,1,0.4,1.5,0.8c-1.3-0.1-2.7,0.4-3.9,1.3l-0.1,0.1
		c-3.3,2.8-3.3,7.6-0.8,11l0.2,0.2l0.2,0.2c1.7,1.7,4,2.5,6.3,2.3c2.4-0.1,4.6-1.3,6.1-3.3c2.1,3.8,6.5,4.3,10.3,3.7
		C235.5,188.7,237.2,177.9,235.1,170.7z"/>
	<path class="st8" d="M127.5,116.4L127.5,116.4c1.8,0.9,4,1,6.8-0.2l-0.7-0.5c-1.4-0.8-2.3-2.4-2.3-4.2c0-2.7,2-4.8,4.5-4.8
		c2.5,0,4.6,2.2,4.6,4.8c0,0,0,0.1,0,0.1c-0.6,8.2-12.1,7.3-12.1,7.3c-8.9-2.3-9.7-10.5-9.7-10.5c0.1-9,0.1-17.9,0.1-26.9
		c0,0,0.7-8.2,9.6-10.5c0,0,11.5-0.9,12.1,7.3c0,0,0,0.1,0,0.1c0,2.7-2,4.8-4.6,4.8c-2.5,0-4.5-2.2-4.5-4.8c0-1.8,0.9-3.4,2.3-4.2
		l0.7-0.5c-2.3-0.8-4.5-1-6.8-0.2C127.5,88,127.5,102.2,127.5,116.4 M55.2,109.1L55.2,109.1v-45C54,56.5,47.1,57,47.1,57
		s-2.6-0.3-4,0.1c0,0-5.8,0.2-12.9,5.1c-7,4.9-14.6-4-14.6-4s0.4-4.4-2.1-5.3c0,0-1.4,3.6,1.6,5.6c0,0,5.1,6.6,11.6,5.4
		c0,0-10.7,3.7-15.1-7.1c-4.3-10.8,3.4-12,3.4-12s3.1-0.4,3.4,2.2c0.2,2.6,1.8-2.5-1.4-2.9c-3.2-0.3-4.8,1.3-4.8,1.3
		s4.8-5.9,8.6,0.6c0,0-0.7,0.6-1.1,2.1c0,0-0.3,0.8-1,0.7c0,0,3.1,0.6,2.6-2.4c0,0-0.8-5.5-6.7-4C8.8,44.2,9.6,53,9.6,53
		s0.7,7,5.6,9.6c0,0-6.3-3.1-6.9-6.9c0,0,0.4-3-1.5-4.1c0,0-1,2.9,0.9,4.4c0,0,2.8,7.5,13.1,9.1c0,0,4.2,1,10.5-2.4
		c6.3-3.4,9.2-4.6,11.5-4.1c3.7,0.9,4.3,4.6,4.3,4.6l-0.1,8.4l-5.6-0.2c-7.7,0.8-8.8,9.6-8.8,9.6l0.2,27.6
		c1.4,6.2,6.4,10.2,12.6,9.5c0.3,0,4.1-0.9,3.9-1.5c0.3,1.3,3.7,1.4,3.7,1.4h7.2v-0.2c1.1,0.3,3.6,1.2,4.1,4.5v0.8
		c0,26.5,0,53,0,79.4c0,0,0.3,7.8-4.5,12.3c-0.9,0.8,1.1-2.2,1.1-3.5c0-3.2-2.4-5.8-5.5-5.8c-3,0-5.4,2.6-5.4,5.8
		c0,3,2.1,5.4,4.8,5.8c0,0-9.7,1.2-15.4-5.4c-5.7-6.7-3.6-16.3-0.9-18.9c4.7-6,15.1-1.8,12.5,6.7c0,0-0.8,1.8-3.4,1.7
		c0.2-0.9,0.1-1.3-1.3-2.3c-0.7-0.7-0.5-2.3,0.7-1.6c0,0-0.4,0.2-0.2,0.6c0.1,0.2,0.5,0.3,0.8-0.1c0.3-0.5-0.2-1.6-1.7-1.4
		c-2.4,0.4-2.4,2.8-2.1,4c0.6,1.9,2.2,2.4,3.4,1.4c7.2,1.4,7.3-12.3-2.6-12.6c0,0-6.4-0.7-9.3,6.7c-4.4,11.5,4.7,22.4,15.4,23.3
		c3.7,0.3,7.7-0.5,11-2.1c10.2-4.8,10.7-17.5,10.7-17.5c-0.1-21.3-0.1-42.7-0.1-64c0-1.8,1.3-3.2,3-3.2c1.6,0,3,1.4,3,3.2
		c0,0,0,14.7,0,33.7c0,0-0.6,9.6,11.9,8V176c0,0-3.5-0.6-3.5-6c0-16.7,0.1-29.3,0.1-29.3s-1.1-8.8-8.8-9.6l-5.6,0.2
		c0,0-0.1-5.5-0.1-7.8c0,0-0.2-1.8-1.4-3.6c3.4-0.4,4.9-3.1,5.4-6c1.4,5.5,4.4,6.1,11.9,6.1c2.5-0.2,10.3,0.2,10.6-6V77.2
		c0,0,0.5-1.7,3.3-1.8c0,0,2.4,0.1,3.3,2c0,12.8,0,25.6,0,38.3c0,0-1,1-3.1,1.2v1.4H117V117c0,0-3.3,0.4-3.6-2.9c0-11,0-22,0-33
		c0,0,1-5.7-7.7-7.6c0,0-6-1.4-9.8,3.5c0,0-2.3-5.7-11.7-2.9l1.2,1.6c0,0,6.1-1.4,6.5,2.9c0,0,0,24.2,0,34.9c0,4.2-3.5,3.5-3.5,3.5
		c-4.5,0.1-4.1-4.5-4.1-4.5l-0.2-31c-0.6-5.9-5.2-7.2-5.2-7.2c-9.3-2.8-14.1,3.6-14.1,3.6c-0.6,0.9-1,2-1,3.2c0,2.9,2.2,5.3,5,5.3
		c2.8,0,5-2.4,5-5.3c0-1.7-0.8-3.2-1.9-4.2c0.3-2.2,3.6-1.8,4.6-0.3l0,12.8c-3.1-1.4-12,0.7-13.1,9.2l0,14.1c0,1.2,0.3,2.5,0.9,3.6
		h-4.4v0C55.5,115.9,55.2,109.1,55.2,109.1z M46.9,113.6L46.9,113.6c0,1.8-1.3,3.2-3,3.2c-1.6,0-3-1.4-3-3.2V76.3
		c0-1.8,1.3-3.2,3-3.2c1.6,0,3,1.4,3,3.2V113.6z M76.1,110.1L76.1,110.1c0,3.2-5.5,4.1-5.6-0.5v-15c1.1-3,3-3.9,5.6-2.6V110.1z
		 M230.7,172.2L230.7,172.2c-1.9-6.5-8.6-10.1-14.7-9.3c-6.1,0.8-13.5,4.6-17.8,9.1c-3.3,3.5-6.5,9.5-12.6,19.1
		c-10.1,13.4-27.3,12.7-34.2,6.2c-11.1-10.4-8.9-19.7-8.9-19.7c0-2,0-37.6,0-37.6s1-5.7-7.7-7.6c0,0-6-1.4-9.8,3.5
		c0,0-2.3-5.7-11.7-2.9l1.2,1.6c0,0,6.1-1.4,6.5,2.9c0,0,0,24.2,0,34.9c0,4.2-3.5,3.5-3.5,3.5c-4.5,0.1-4.1-4.5-4.1-4.5l-0.2-31
		c-0.6-5.9-5.2-7.2-5.2-7.2c-9.3-2.8-14.1,3.6-14.1,3.6c-0.6,0.9-1,2-1,3.2c0,2.9,2.2,5.3,5,5.3c2.8,0,5-2.4,5-5.3
		c0-1.7-0.8-3.2-1.9-4.2c0.3-2.2,3.6-1.8,4.6-0.3l0,12.8c-3.1-1.4-12,0.7-13.1,9.2l0,14.1c0,3.4,2.2,7.1,6.6,7.3
		c4.4,0.2,6.2-2.8,6.8-6c1.4,5.5,4.4,6.1,11.9,6.1c2.5-0.2,10.3,0.2,10.6-6v-36.8c0,0,0.5-1.7,3.3-1.8c0,0,2.4,0.1,3.3,2
		c0,0,0,37,0,38.7c0,0,0,2.8,4.7,3.4l0.4,0.4c1,9.7,5.9,18,12.9,22c10.3,6,24.3,2.9,32.5-7.4c4.3-5.5,4.7-7.7,6.6-10.9
		c4.9-8.1,7.8-12.8,15.1-12.3c3.1,0.7,6.4,3.9,7,7.1c0.8,3.3-1.2,9.5-5.6,8.2c-0.7-0.2-2-0.7-2.5-2c-0.5-1.2-0.4-2-0.1-2.6
		c0.1,1,1.8,0.3,2,0.1c0.3-0.3,1.3-1.3,0.9,0.1c0.9-0.7-0.4-3.6-2.6-1.8c-1.8,1.6-1.3,4-0.2,5.5c1.7,1.7,5.3,1.9,7.2-0.8
		c2.5-3.7,1.4-9.2-1.5-11.7c-4-4.1-10.5-3.1-14.1,0.7c4.4-4,11.5-8.6,18.4-9.4c5.7-0.6,11.4,1.6,13.8,8.5c1.3,3.6,0.9,8.1-1,11.5
		c0-1.9-2.1-0.9-2.2-0.8c-2.5,3.4-9.2,3.8-7.5-2.2c-1,0.8-1.8,7.4,6.6,6C231.4,185.6,232.2,177.3,230.7,172.2z M105.4,169L105.4,169
		c0,3.2-5.5,4.1-5.6-0.5v-15c1.1-3,3-3.9,5.6-2.6V169z M49.3,176.4L49.3,176.4c2,0.8,4.2,0.9,6.8-0.2l-0.7-0.5
		c-1.4-0.8-2.3-2.4-2.3-4.2c0-2.7,2-4.8,4.5-4.8c2.5,0,4.6,2.2,4.6,4.8c0,0,0,0.1,0,0.1c-0.6,8.2-12.1,7.3-12.1,7.3
		c-8.9-2.3-9.7-10.5-9.7-10.5c0.1-9,0.1-17.9,0.1-26.9c0,0,0.7-8.2,9.6-10.5c0,0,11.5-0.9,12.1,7.3c0,0,0,0.1,0,0.1
		c0,2.7-2,4.8-4.6,4.8c-2.5,0-4.5-2.2-4.5-4.8c0-1.8,0.9-3.4,2.3-4.2l0.7-0.5c-2.3-0.9-4.5-0.9-6.8-0.2
		C49.3,147.9,49.3,162.2,49.3,176.4z M186.3,166.6L186.3,166.6c-2.5,0-4.5,2.2-4.5,4.9c0,1.8,1,3.4,2.4,4.2l0.7,0.5
		c-2.8,1.4-5.1,1.4-6.8,0.3c-0.1-8-0.2-16-0.3-24l12.9-0.2l-0.2-13.8v-0.1c-0.7-8.1-12.2-7.1-12.2-7.1c-8.9,2.4-9.5,10.6-9.5,10.6
		c0.1,9,0.2,17.9,0.2,26.9c0,0,0.9,8.2,9.8,10.3c0,0,11.5,0.7,12-7.5v-0.1C190.9,168.7,188.8,166.6,186.3,166.6z M177.7,144.8
		L177.7,144.8c0-3.2-0.1-8.1-0.1-8.1c0-2,1.5-3.6,3.4-3.7c1.9,0,3.4,1.6,3.5,3.6c0,0,0.1,5.3,0.1,8.5l0.1,5.5l-6.8,0.1L177.7,144.8z
		 M154.2,176.4L154.2,176.4c1.9,1.3,4.2,1.3,6.8-0.2l-0.7-0.5c-1.4-0.8-2.3-2.4-2.3-4.2c0-2.7,2-4.8,4.5-4.8c2.5,0,4.5,2.2,4.5,4.8
		c0,0,0,0.1,0,0.1c-0.6,8.2-12.1,7.3-12.1,7.3c-8.9-2.3-9.7-10.5-9.7-10.5c0.1-9,0.1-17.9,0.1-26.9c0,0,0.7-8.2,9.6-10.5
		c0,0,11.5-0.9,12.1,7.3c0,0,0,0.1,0,0.1c0,2.7-2,4.8-4.5,4.8c-2.5,0-4.5-2.2-4.5-4.8c0-1.8,0.9-3.4,2.3-4.2l0.7-0.5
		c-2.2-1.2-4.4-1.3-6.8-0.2C154.2,147.9,154.2,162.2,154.2,176.4z M190.8,91.2L190.8,91.2c-5.5,1.4-6,6.5-6,6.5v16.7
		c0,0,0.6,6,6,6.5c0,0,7.1,0.5,7.5-4.5v-0.1c0-1.7-1.3-3-2.8-3c-1.6,0-2.8,1.3-2.8,3c0,1.1,0.6,2.1,1.4,2.6l0.4,0.3
		c-1.4,0.6-2.8,0.7-4.2,0.1c0-5,0-9.9,0-14.9h8v-8.6C198,90.7,190.8,91.2,190.8,91.2z M194.6,99.9L194.6,99.9v3.4h-4.2v-3.6
		c0-2,0-5,0-5c0-1.2,0.9-2.2,2.1-2.2c1.2,0,2.1,1,2.1,2.2C194.6,94.6,194.6,97.9,194.6,99.9z M182.2,97.2L182.2,97.2
		c-0.9-3.8-3.9-6.3-7.8-5.9c-0.2,0-2.5,0.6-2.5,0.9c-0.2-0.8-2.3-0.9-2.3-0.9h-4.4v1.3c2.8-0.1,3.1,4.4,3.1,4.4v32.8
		c0,0-0.3,2.5-2.8,2.9v1l2.9,0.1c0,0,4.3,0.3,5.1-4.4v-4.4h0l0-4.6l3.5,0c4.8-0.5,5.5-6,5.5-6L182.2,97.2z M177,117.3L177,117.3
		c0,1.1-0.8,2-1.8,2c-1,0-1.8-0.9-1.8-2V94.2c0-1.1,0.8-2,1.8-2c1,0,1.8,0.9,1.8,2V117.3z M160,106.7L160,106.7
		c-2.5,0-4.5,2.2-4.5,4.9c0,1.8,1,3.4,2.4,4.2l0.7,0.5c-2.6,1.1-4.9,1.2-6.8,0.3l-0.2-20l0-1.6c0,0,0-1.1,0-2.4l12.9-0.2l-0.2-13.8
		v-0.1c-0.7-8.2-12.2-7.1-12.2-7.1c-8.9,2.4-9.2,10.6-9.2,10.6c0.1,9,0,17.9,0,26.9c0,0,0.9,8.2,9.8,10.3c0,0,11.5,0.7,12-7.5v-0.1
		C164.6,108.8,162.5,106.7,160,106.7z M151.4,84.9c0-3.2-0.1-8.1-0.1-8.1c0-2,1.5-3.6,3.4-3.7c1.9,0,3.4,1.6,3.4,3.6
		c0,0,0.1,5.3,0.1,8.5l0.1,5.5l-6.8,0.1L151.4,84.9z"/>
	<path class="st9" d="M128.4,116.1L128.4,116.1c1.8,0.9,4,1,6.8-0.2l-0.7-0.5c-1.4-0.8-2.3-2.4-2.3-4.2c0-2.7,2-4.8,4.5-4.8
		c2.5,0,4.6,2.2,4.6,4.8c0,0,0,0.1,0,0.1c-0.6,8.2-12.1,7.3-12.1,7.3c-8.9-2.3-9.7-10.5-9.7-10.5c0.1-9,0.1-17.9,0.1-26.9
		c0,0,0.7-8.2,9.6-10.5c0,0,11.5-0.9,12.1,7.3c0,0,0,0.1,0,0.1c0,2.7-2,4.8-4.6,4.8c-2.5,0-4.5-2.2-4.5-4.8c0-1.8,0.9-3.4,2.3-4.2
		l0.7-0.5c-2.3-0.8-4.5-1-6.8-0.2C128.4,87.7,128.4,101.9,128.4,116.1 M56.1,108.8L56.1,108.8v-45c-1.3-7.7-8.2-7.1-8.2-7.1
		s-2.6-0.3-4,0.1c0,0-5.8,0.2-12.9,5.1c-7,4.9-14.6-4-14.6-4s0.4-4.4-2.1-5.3c0,0-1.4,3.6,1.6,5.6c0,0,5.1,6.6,11.6,5.4
		c0,0-10.7,3.7-15.1-7.1c-4.3-10.8,3.4-12,3.4-12s3.1-0.4,3.4,2.2c0.2,2.6,1.8-2.5-1.4-2.9c-3.2-0.3-4.8,1.3-4.8,1.3
		s4.8-5.9,8.6,0.6c0,0-0.7,0.6-1.1,2.1c0,0-0.3,0.8-1,0.7c0,0,3.1,0.6,2.6-2.4c0,0-0.8-5.5-6.7-4c-5.9,1.5-5.1,10.4-5.1,10.4
		s0.7,7,5.6,9.6c0,0-6.3-3.1-6.9-6.9c0,0,0.4-3-1.5-4.1c0,0-1,2.9,0.9,4.4c0,0,2.8,7.5,13.1,9.1c0,0,4.2,1,10.5-2.4
		c6.3-3.4,9.2-4.6,11.5-4.1c3.7,0.9,4.3,4.6,4.3,4.6l-0.1,8.4l-5.6-0.2c-7.7,0.8-8.8,9.6-8.8,9.6l0.2,27.6
		c1.4,6.2,6.4,10.2,12.6,9.5c0.3,0,4.1-0.9,3.9-1.5c0.3,1.3,3.7,1.4,3.7,1.4H61v-0.2c1.1,0.3,3.6,1.2,4.1,4.5v0.8
		c0,26.5,0,53,0,79.4c0,0,0.3,7.8-4.5,12.3c-0.9,0.8,1.1-2.2,1.1-3.5c0-3.2-2.4-5.8-5.5-5.8c-3,0-5.4,2.6-5.4,5.8
		c0,3,2.1,5.4,4.8,5.8c0,0-9.7,1.2-15.4-5.4c-5.7-6.7-3.6-16.3-0.9-18.9c4.7-6,15.1-1.8,12.5,6.7c0,0-0.8,1.8-3.4,1.7
		c0.2-0.9,0.1-1.3-1.3-2.3c-0.7-0.7-0.5-2.3,0.7-1.6c0,0-0.4,0.2-0.2,0.6c0.1,0.2,0.5,0.3,0.8-0.1c0.3-0.5-0.2-1.6-1.7-1.4
		c-2.4,0.4-2.4,2.8-2.1,4c0.6,1.9,2.2,2.4,3.4,1.4c7.2,1.4,7.3-12.3-2.6-12.6c0,0-6.4-0.7-9.3,6.7c-4.4,11.5,4.7,22.4,15.4,23.3
		c3.7,0.3,7.7-0.5,11-2.1c10.2-4.8,10.7-17.5,10.7-17.5c-0.1-21.3-0.1-42.7-0.1-64c0-1.8,1.3-3.2,3-3.2c1.6,0,3,1.4,3,3.2
		c0,0,0,14.7,0,33.7c0,0-0.6,9.6,11.9,8v-1.5c0,0-3.5-0.6-3.5-6c0-16.7,0.1-29.3,0.1-29.3s-1.1-8.8-8.8-9.6l-5.6,0.2
		c0,0-0.1-5.5-0.1-7.8c0,0-0.2-1.8-1.4-3.6c3.4-0.4,4.9-3.1,5.4-6c1.4,5.5,4.4,6.1,11.9,6.1c2.5-0.2,10.3,0.2,10.6-6V76.9
		c0,0,0.5-1.7,3.3-1.8c0,0,2.4,0.1,3.3,2c0,12.8,0,25.6,0,38.3c0,0-1,1-3.1,1.2v1.4h14.4v-1.4c0,0-3.3,0.4-3.6-2.9c0-11,0-22,0-33
		c0,0,1-5.7-7.7-7.6c0,0-6-1.4-9.8,3.5c0,0-2.3-5.7-11.7-2.9l1.2,1.6c0,0,6.1-1.4,6.5,2.9c0,0,0,24.2,0,34.9c0,4.2-3.5,3.5-3.5,3.5
		c-4.5,0.1-4.1-4.5-4.1-4.5l-0.2-31c-0.6-5.9-5.2-7.2-5.2-7.2c-9.3-2.8-14.1,3.6-14.1,3.6c-0.6,0.9-1,2-1,3.2c0,2.9,2.2,5.3,5,5.3
		c2.8,0,5-2.4,5-5.3c0-1.7-0.8-3.2-1.9-4.2c0.3-2.2,3.6-1.8,4.6-0.3l0,12.8c-3.1-1.4-12,0.7-13.1,9.2l0,14.1c0,1.2,0.3,2.5,0.9,3.6
		h-4.4v0C56.4,115.6,56.1,108.8,56.1,108.8z M47.8,113.3L47.8,113.3c0,1.8-1.3,3.2-3,3.2c-1.6,0-3-1.4-3-3.2V76c0-1.8,1.3-3.2,3-3.2
		c1.6,0,3,1.4,3,3.2V113.3z M77,109.8L77,109.8c0,3.2-5.5,4.1-5.6-0.5v-15c1.1-3,3-3.9,5.6-2.6V109.8z M231.6,171.9L231.6,171.9
		c-1.9-6.5-8.6-10.1-14.7-9.3c-6.1,0.8-13.5,4.6-17.8,9.1c-3.3,3.5-6.5,9.5-12.6,19.1c-10.1,13.4-27.3,12.7-34.2,6.2
		c-11.1-10.4-8.9-19.7-8.9-19.7c0-2,0-37.6,0-37.6s1-5.7-7.7-7.6c0,0-6-1.4-9.8,3.5c0,0-2.3-5.7-11.7-2.9l1.2,1.6
		c0,0,6.1-1.4,6.5,2.9c0,0,0,24.2,0,34.9c0,4.2-3.5,3.5-3.5,3.5c-4.5,0.1-4.1-4.5-4.1-4.5l-0.2-31c-0.6-5.9-5.2-7.2-5.2-7.2
		c-9.3-2.8-14.1,3.6-14.1,3.6c-0.6,0.9-1,2-1,3.2c0,2.9,2.2,5.3,5,5.3c2.8,0,5-2.4,5-5.3c0-1.7-0.8-3.2-1.9-4.2
		c0.3-2.2,3.6-1.8,4.6-0.3l0,12.8c-3.1-1.4-12,0.7-13.1,9.2l0,14.1c0,3.4,2.2,7.1,6.6,7.3c4.4,0.2,6.2-2.8,6.8-6
		c1.4,5.5,4.4,6.1,11.9,6.1c2.5-0.2,10.3,0.2,10.6-6v-36.8c0,0,0.5-1.7,3.3-1.8c0,0,2.4,0.1,3.3,2c0,0,0,37,0,38.7
		c0,0,0,2.8,4.7,3.4l0.4,0.4c1,9.7,5.9,18,12.9,22c10.3,6,24.3,2.9,32.5-7.4c4.3-5.5,4.7-7.7,6.6-10.9c4.9-8.1,7.8-12.8,15.1-12.3
		c3.1,0.7,6.4,3.9,7,7.1c0.8,3.3-1.2,9.5-5.6,8.2c-0.7-0.2-2-0.7-2.5-2c-0.5-1.2-0.4-2-0.1-2.6c0.1,1,1.8,0.3,2,0.1
		c0.3-0.3,1.3-1.3,0.9,0.1c0.9-0.7-0.4-3.6-2.6-1.8c-1.8,1.6-1.3,4-0.2,5.5c1.7,1.7,5.3,1.9,7.2-0.8c2.5-3.7,1.4-9.2-1.5-11.7
		c-4-4.1-10.5-3.1-14.1,0.7c4.4-4,11.5-8.6,18.4-9.4c5.7-0.6,11.4,1.6,13.8,8.5c1.3,3.6,0.9,8.1-1,11.5c0-1.9-2.1-0.9-2.2-0.8
		c-2.5,3.4-9.2,3.8-7.5-2.2c-1,0.8-1.8,7.4,6.6,6C232.3,185.3,233,177,231.6,171.9z M106.3,168.7L106.3,168.7c0,3.2-5.5,4.1-5.6-0.5
		v-15c1.1-3,3-3.9,5.6-2.6V168.7z M50.2,176.1L50.2,176.1c2,0.8,4.2,0.9,6.8-0.2l-0.7-0.5c-1.4-0.8-2.3-2.4-2.3-4.2
		c0-2.7,2-4.8,4.5-4.8c2.5,0,4.6,2.2,4.6,4.8c0,0,0,0.1,0,0.1c-0.6,8.2-12.1,7.3-12.1,7.3c-8.9-2.3-9.7-10.5-9.7-10.5
		c0.1-9,0.1-17.9,0.1-26.9c0,0,0.7-8.2,9.6-10.5c0,0,11.5-0.9,12.1,7.3c0,0,0,0.1,0,0.1c0,2.7-2,4.8-4.6,4.8c-2.5,0-4.5-2.2-4.5-4.8
		c0-1.8,0.9-3.4,2.3-4.2l0.7-0.5c-2.3-0.9-4.5-0.9-6.8-0.2C50.2,147.6,50.2,161.9,50.2,176.1z M187.2,166.3L187.2,166.3
		c-2.5,0-4.5,2.2-4.5,4.9c0,1.8,1,3.4,2.4,4.2l0.7,0.5c-2.8,1.4-5.1,1.4-6.8,0.3c-0.1-8-0.2-16-0.3-24l12.9-0.2l-0.2-13.8V138
		c-0.7-8.1-12.2-7.1-12.2-7.1c-8.9,2.4-9.5,10.6-9.5,10.6c0.1,9,0.2,17.9,0.2,26.9c0,0,0.9,8.2,9.8,10.3c0,0,11.5,0.7,12-7.5v-0.1
		C191.8,168.4,189.7,166.3,187.2,166.3z M178.6,144.5L178.6,144.5c0-3.2-0.1-8.1-0.1-8.1c0-2,1.5-3.6,3.4-3.7c1.9,0,3.4,1.6,3.5,3.6
		c0,0,0.1,5.3,0.1,8.5l0.1,5.5l-6.8,0.1L178.6,144.5z M155.1,176.1L155.1,176.1c1.9,1.3,4.2,1.3,6.8-0.2l-0.7-0.5
		c-1.4-0.8-2.3-2.4-2.3-4.2c0-2.7,2-4.8,4.5-4.8c2.5,0,4.5,2.2,4.5,4.8c0,0,0,0.1,0,0.1c-0.6,8.2-12.1,7.3-12.1,7.3
		c-8.9-2.3-9.7-10.5-9.7-10.5c0.1-9,0.1-17.9,0.1-26.9c0,0,0.7-8.2,9.6-10.5c0,0,11.5-0.9,12.1,7.3c0,0,0,0.1,0,0.1
		c0,2.7-2,4.8-4.5,4.8c-2.5,0-4.5-2.2-4.5-4.8c0-1.8,0.9-3.4,2.3-4.2l0.7-0.5c-2.2-1.2-4.4-1.3-6.8-0.2
		C155.1,147.6,155.1,161.9,155.1,176.1z M191.7,90.9L191.7,90.9c-5.5,1.4-6,6.5-6,6.5v16.7c0,0,0.6,6,6,6.5c0,0,7.1,0.5,7.5-4.5V116
		c0-1.7-1.3-3-2.8-3c-1.6,0-2.8,1.3-2.8,3c0,1.1,0.6,2.1,1.4,2.6l0.4,0.3c-1.4,0.6-2.8,0.7-4.2,0.1c0-5,0-9.9,0-14.9h8v-8.6
		C198.9,90.4,191.7,90.9,191.7,90.9z M195.5,99.6L195.5,99.6v3.4h-4.2v-3.6c0-2,0-5,0-5c0-1.2,0.9-2.2,2.1-2.2c1.2,0,2.1,1,2.1,2.2
		C195.5,94.3,195.5,97.6,195.5,99.6z M183.1,96.9L183.1,96.9c-0.9-3.8-3.9-6.3-7.8-5.9c-0.2,0-2.5,0.6-2.5,0.9
		c-0.2-0.8-2.3-0.9-2.3-0.9h-4.4v1.3c2.8-0.1,3.1,4.4,3.1,4.4v32.8c0,0-0.3,2.5-2.8,2.9v1l2.9,0.1c0,0,4.3,0.3,5.1-4.4v-4.4h0l0-4.6
		l3.5,0c4.8-0.5,5.5-6,5.5-6L183.1,96.9z M177.9,117L177.9,117c0,1.1-0.8,2-1.8,2c-1,0-1.8-0.9-1.8-2V93.9c0-1.1,0.8-2,1.8-2
		c1,0,1.8,0.9,1.8,2V117z M160.9,106.4L160.9,106.4c-2.5,0-4.5,2.2-4.5,4.9c0,1.8,1,3.4,2.4,4.2l0.7,0.5c-2.6,1.1-4.9,1.2-6.8,0.3
		l-0.2-20l0-1.6c0,0,0-1.1,0-2.4l12.9-0.2l-0.2-13.8v-0.1c-0.7-8.2-12.2-7.1-12.2-7.1c-8.9,2.4-9.2,10.6-9.2,10.6
		c0.1,9,0,17.9,0,26.9c0,0,0.9,8.2,9.8,10.3c0,0,11.5,0.7,12-7.5v-0.1C165.4,108.5,163.4,106.4,160.9,106.4z M152.3,84.6
		c0-3.2-0.1-8.1-0.1-8.1c0-2,1.5-3.6,3.4-3.7c1.9,0,3.4,1.6,3.4,3.6c0,0,0.1,5.3,0.1,8.5l0.1,5.5l-6.8,0.1L152.3,84.6z"/>
	<path class="st1" d="M143.3,278.5l1,1.1c-0.5,0.7-1.2,1.2-2,1.6c-0.8,0.4-1.8,0.5-2.9,0.5c-1,0-1.9-0.2-2.7-0.5
		c-0.8-0.3-1.5-0.8-2-1.4c-0.6-0.6-1-1.3-1.3-2.2c-0.3-0.8-0.4-1.8-0.4-2.8c0-1,0.2-1.9,0.5-2.8c0.3-0.8,0.8-1.6,1.4-2.2
		c0.6-0.6,1.3-1.1,2.2-1.4c0.8-0.3,1.8-0.5,2.8-0.5c1.1,0,2.5,0.3,4.2,1v3.4H143c-0.2,0-0.4-0.1-0.4-0.3c0-0.2-0.1-0.7-0.2-1.5
		c-1-0.3-1.9-0.4-2.6-0.4c-0.6,0-1.2,0.1-1.7,0.3c-0.5,0.2-1,0.5-1.4,0.9c-0.4,0.4-0.7,0.9-0.9,1.5c-0.2,0.6-0.3,1.2-0.3,2
		c0,0.8,0.1,1.4,0.3,2c0.2,0.6,0.5,1.1,0.9,1.5c0.4,0.4,0.8,0.7,1.3,0.9c0.5,0.2,1,0.3,1.6,0.3c0.3,0,0.6,0,0.9-0.1
		c0.3,0,0.5-0.1,0.8-0.2c0.2-0.1,0.4-0.2,0.7-0.3c0.2-0.1,0.4-0.3,0.6-0.5c0.1-0.1,0.1-0.1,0.2-0.1c0.1,0,0.1-0.1,0.2-0.1
		C143.1,278.3,143.2,278.4,143.3,278.5z M146.8,268.1v1.1c0,0.3,0.2,0.5,0.5,0.6c0,0,0.1,0,0.1,0c0,0,0.1,0,0.3,0
		c0.1,0,0.3,0.1,0.6,0.1v9.7c-0.2,0-0.4,0.1-0.6,0.1c-0.1,0-0.2,0-0.3,0c-0.1,0-0.1,0-0.1,0c-0.3,0.1-0.5,0.3-0.5,0.6v1.1h1.4h8.5
		v-1.3v-0.7V278h-0.1h-0.2h-0.8c-0.2,0-0.4,0.1-0.4,0.3c0,0.1-0.1,0.5-0.1,1.2h-4.3v-3.8h4.5v-1.9h-4.5v-3.7h4.3
		c0.1,0.7,0.1,1,0.1,1.2c0,0.2,0.2,0.3,0.4,0.3h0.8h0.2h0.1v-1.5v-0.7v-1.3h-8.5H146.8z M167.6,278.6c0,0.1,0,0.3-0.1,0.8h-4.3v-9.5
		c0.2,0,0.4-0.1,0.5-0.1c0.1,0,0.2,0,0.3-0.1c0.1,0,0.1,0,0.1,0c0.3-0.1,0.5-0.3,0.5-0.6v-1.1h-1.4h-2.5h-1.4v1.1
		c0,0.3,0.2,0.5,0.5,0.6c0,0,0.1,0,0.1,0c0.1,0,0.1,0,0.3,0.1c0.1,0,0.3,0.1,0.5,0.1v9.7c-0.2,0-0.4,0.1-0.5,0.1
		c-0.1,0-0.2,0-0.3,0.1c0,0-0.1,0-0.1,0c-0.3,0.1-0.5,0.3-0.5,0.6v1.1h1.4h7.8h0.1h0.4v-1v-0.4v-1.9h-1
		C167.8,278.3,167.7,278.4,167.6,278.6z M171.7,268.1v1.1c0,0.3,0.2,0.5,0.5,0.6c0,0,0.1,0,0.1,0c0.1,0,0.1,0,0.3,0
		c0.1,0,0.3,0.1,0.6,0.1v9.7c-0.2,0-0.4,0.1-0.6,0.1c-0.1,0-0.2,0-0.3,0c0,0-0.1,0-0.1,0c-0.3,0.1-0.5,0.3-0.5,0.6v1.1h1.4h8.5v-1.3
		v-0.7V278h-0.1h-0.2h-0.8c-0.2,0-0.4,0.1-0.4,0.3c0,0.1-0.1,0.5-0.1,1.2h-4.3v-3.8h4.5v-1.9h-4.5v-3.7h4.3c0.1,0.7,0.1,1,0.1,1.2
		c0.1,0.2,0.2,0.3,0.4,0.3h0.8h0.2h0.1v-1.5v-0.7v-1.3h-8.5H171.7z M195.5,277.6c0,0.6-0.1,1.1-0.3,1.6c-0.2,0.5-0.5,0.9-0.9,1.2
		c-0.4,0.3-0.9,0.6-1.5,0.8c-0.6,0.2-1.3,0.3-2.1,0.3h-5.1h-1.4v-1.1c0-0.3,0.2-0.5,0.5-0.6c0,0,0.1,0,0.1,0c0.1,0,0.1,0,0.3-0.1
		c0.1,0,0.3-0.1,0.5-0.1v-9.7c-0.2,0-0.4-0.1-0.5-0.1c-0.1,0-0.2,0-0.3-0.1c-0.1,0-0.1,0-0.1,0c-0.3-0.1-0.5-0.3-0.5-0.6v-1.1h1.4
		h4.6c0.9,0,1.6,0.1,2.3,0.3c0.6,0.2,1.1,0.4,1.5,0.7c0.4,0.3,0.7,0.7,0.9,1.1c0.2,0.4,0.3,0.9,0.3,1.5c0,0.3,0,0.6-0.1,0.9
		c-0.1,0.3-0.2,0.6-0.4,0.8c-0.2,0.3-0.4,0.5-0.7,0.7c-0.3,0.2-0.7,0.4-1.1,0.5C194.6,275,195.5,276,195.5,277.6z M188.1,273.9h2
		c0.8,0,1.5-0.2,1.9-0.5c0.4-0.3,0.7-0.8,0.7-1.5c0-0.7-0.2-1.2-0.6-1.5c-0.4-0.3-1-0.4-1.9-0.4h-2.1V273.9z M193.1,277.5
		c0-0.3,0-0.6-0.1-0.8c-0.1-0.2-0.2-0.4-0.4-0.6c-0.2-0.2-0.5-0.3-0.8-0.4c-0.3-0.1-0.7-0.1-1.1-0.1h-2.5v3.9h2.5
		c0.5,0,0.9-0.1,1.2-0.2c0.3-0.1,0.6-0.3,0.8-0.4c0.2-0.2,0.3-0.4,0.4-0.6C193,278,193.1,277.8,193.1,277.5z M210,280.4v1.1h-0.3
		h-1.1h-1.1c-0.2,0-0.4,0-0.6-0.1c-0.2-0.1-0.3-0.2-0.4-0.4l-2.8-4.3c-0.1-0.2-0.2-0.3-0.3-0.3c-0.1-0.1-0.3-0.1-0.6-0.1h-0.9v3.4
		c0.2,0,0.4,0.1,0.5,0.1c0.1,0,0.2,0,0.3,0.1c0.1,0,0.1,0,0.1,0c0.3,0.1,0.5,0.3,0.5,0.6v1.1h-1.4h-2.5H198v-1.1
		c0-0.3,0.2-0.5,0.5-0.6c0,0,0.1,0,0.1,0c0.1,0,0.1,0,0.3-0.1c0.1,0,0.3-0.1,0.5-0.1v-9.7c-0.2,0-0.4-0.1-0.5-0.1
		c-0.1,0-0.2,0-0.3-0.1c-0.1,0-0.1,0-0.1,0c-0.3-0.1-0.5-0.3-0.5-0.6v-1.1h1.4h4c0.9,0,1.7,0.1,2.4,0.3c0.7,0.2,1.2,0.5,1.6,0.8
		c0.4,0.3,0.7,0.7,0.9,1.2c0.2,0.5,0.3,1,0.3,1.6c0,0.5-0.1,0.9-0.2,1.3c-0.1,0.4-0.3,0.8-0.6,1.1c-0.3,0.3-0.6,0.6-0.9,0.9
		c-0.4,0.2-0.8,0.4-1.3,0.6c0.3,0.2,0.6,0.4,0.8,0.8l2.1,3.1c0.2,0,0.4,0.1,0.6,0.1c0.2,0,0.3,0,0.3,0.1c0.1,0,0.1,0,0.1,0
		C209.9,279.9,210,280.1,210,280.4z M205.5,273.8c0.2-0.2,0.4-0.5,0.5-0.7c0.1-0.3,0.2-0.6,0.2-0.9c0-0.7-0.2-1.2-0.7-1.6
		c-0.4-0.4-1.1-0.5-2.1-0.5h-1.5v4.5h1.4c0.5,0,0.9-0.1,1.2-0.2C204.9,274.2,205.2,274,205.5,273.8z M227.1,280.6v0.9h-0.7H225h-0.3
		h-0.2h-1.9v-0.9c0-0.2,0.1-0.4,0.4-0.5c0,0,0.2-0.1,0.4-0.2l-0.1-0.2l-0.7-1.8h-5.3l-0.7,1.9l0,0.1c0.2,0.1,0.3,0.1,0.4,0.2
		c0.2,0.1,0.4,0.3,0.4,0.5v0.9h-1.9h-0.2h-0.3h-1.5h-0.7v-0.9c0-0.2,0.1-0.4,0.4-0.5c0.1,0,0.4-0.2,1-0.4l4.5-11.6h2.6l4.5,11.6
		c0.6,0.2,0.9,0.4,1,0.4C227,280.2,227.1,280.3,227.1,280.6z M221.9,276.1l-1.5-4.2c-0.1-0.2-0.2-0.4-0.2-0.7
		c-0.1-0.3-0.2-0.6-0.3-0.9c-0.1,0.3-0.2,0.6-0.3,0.9c-0.1,0.3-0.2,0.5-0.2,0.7l-1.5,4.2H221.9z M238.8,268.1h-10.6h0h-0.3v3.2h0.1
		h0.2h0.8c0.2,0,0.4-0.1,0.4-0.3c0-0.1,0.1-0.4,0.1-0.8h2.7v9.5c-0.2,0-0.4,0.1-0.5,0.1c-0.1,0-0.2,0-0.3,0c-0.1,0-0.1,0-0.1,0
		c-0.3,0.1-0.5,0.3-0.5,0.6v1.1h1.4h2.5h1.4v-1.1c0-0.3-0.2-0.5-0.5-0.6c0,0-0.1,0-0.1,0c-0.1,0-0.1,0-0.3,0c-0.1,0-0.3-0.1-0.5-0.1
		v-9.5h2.7c0,0.4,0.1,0.7,0.1,0.8c0.1,0.2,0.2,0.3,0.4,0.3h0.8h0.2h0.1v-3.2H238.8L238.8,268.1z M243,268.1h-1.4v1.1
		c0,0.3,0.2,0.5,0.5,0.6c0,0,0.1,0,0.1,0c0.1,0,0.1,0,0.3,0c0.1,0,0.3,0.1,0.5,0.1v9.7c-0.2,0-0.4,0.1-0.5,0.1c-0.1,0-0.2,0-0.3,0.1
		c-0.1,0-0.1,0-0.1,0c-0.3,0.1-0.5,0.3-0.5,0.6v1.1h1.4h2.5h1.4v-1.1c0-0.3-0.2-0.5-0.5-0.6c0,0-0.1,0-0.1,0c-0.1,0-0.1,0-0.3-0.1
		c-0.1,0-0.3-0.1-0.5-0.1v-9.7c0.2,0,0.4-0.1,0.5-0.1c0.1,0,0.2,0,0.3,0c0.1,0,0.1,0,0.1,0c0.3-0.1,0.5-0.3,0.5-0.6v-1.1h-1.4H243z
		 M262.5,272.1c0.3,0.8,0.5,1.7,0.5,2.7c0,1-0.2,1.9-0.5,2.7c-0.3,0.8-0.8,1.6-1.4,2.2c-0.6,0.6-1.3,1.1-2.1,1.4
		c-0.8,0.3-1.8,0.5-2.8,0.5c-1,0-1.9-0.2-2.8-0.5c-0.8-0.3-1.6-0.8-2.2-1.4c-0.6-0.6-1.1-1.3-1.4-2.2c-0.3-0.8-0.5-1.7-0.5-2.7
		c0-1,0.2-1.9,0.5-2.7c0.3-0.8,0.8-1.6,1.4-2.2c0.6-0.6,1.3-1.1,2.2-1.4c0.8-0.3,1.8-0.5,2.8-0.5c1,0,1.9,0.2,2.8,0.5
		c0.8,0.3,1.6,0.8,2.1,1.4C261.7,270.5,262.2,271.2,262.5,272.1z M260.5,274.8c0-0.7-0.1-1.4-0.3-2c-0.2-0.6-0.5-1.1-0.8-1.5
		c-0.4-0.4-0.8-0.7-1.3-0.9c-0.5-0.2-1.1-0.3-1.8-0.3c-0.7,0-1.2,0.1-1.8,0.3c-0.5,0.2-1,0.5-1.3,0.9c-0.4,0.4-0.7,0.9-0.8,1.5
		c-0.2,0.6-0.3,1.2-0.3,2c0,0.7,0.1,1.4,0.3,2c0.2,0.6,0.5,1.1,0.8,1.5c0.4,0.4,0.8,0.7,1.3,0.9c0.5,0.2,1.1,0.3,1.8,0.3
		c0.7,0,1.2-0.1,1.8-0.3c0.5-0.2,1-0.5,1.3-0.9c0.4-0.4,0.6-0.9,0.8-1.5C260.4,276.2,260.5,275.5,260.5,274.8z M276.1,268.1h-1.7
		v1.1c0,0.3,0.2,0.5,0.5,0.6c0,0,0.4,0.1,1.2,0.2v6.3c0,0.2,0,0.4,0,0.6c0,0.2,0,0.4,0.1,0.6l-7-9c-0.1-0.1-0.1-0.2-0.2-0.2
		c-0.1-0.1-0.1-0.1-0.2-0.1c-0.1,0-0.1,0-0.2-0.1c-0.1,0-0.2,0-0.3,0h-1.3h-1.4v1.1c0,0.3,0.2,0.5,0.5,0.6c0,0,0.1,0,0.1,0
		c0.1,0,0.1,0,0.3,0.1c0.1,0,0.3,0.1,0.5,0.1v9.7c-0.2,0-0.4,0.1-0.5,0.1c-0.1,0-0.2,0-0.3,0c-0.1,0-0.1,0-0.1,0
		c-0.3,0.1-0.5,0.3-0.5,0.6v1.1h1.4h2.2h1.7v-1.1c0-0.3-0.2-0.5-0.5-0.6c0,0-0.4-0.1-1.2-0.2l0-6.4c0-0.2,0-0.3,0-0.5
		c0-0.2,0-0.4,0-0.6l7,8.9c0.1,0.2,0.2,0.3,0.4,0.3c0.1,0.1,0.3,0.1,0.5,0.1h1.3v-11.6c0.2,0,0.4-0.1,0.5-0.1c0.1,0,0.2,0,0.3-0.1
		c0.1,0,0.1,0,0.1,0c0.3-0.1,0.5-0.3,0.5-0.6v-1.1h-1.4H276.1z M290.7,275.9c-0.2-0.4-0.4-0.7-0.7-1c-0.3-0.3-0.6-0.5-1-0.7
		c-0.4-0.2-0.7-0.3-1.1-0.5c-0.4-0.1-0.8-0.3-1.1-0.4c-0.4-0.1-0.7-0.3-1-0.4c-0.3-0.1-0.5-0.3-0.7-0.5c-0.2-0.2-0.3-0.5-0.3-0.8
		c0-0.2,0-0.5,0.1-0.7c0.1-0.2,0.2-0.4,0.4-0.5c0.2-0.1,0.4-0.3,0.6-0.3c0.3-0.1,0.6-0.1,0.9-0.1c1,0,1.7,0.1,2.2,0.3
		c0.1,0.8,0.1,1.3,0.2,1.5c0,0.2,0.2,0.3,0.4,0.3h0.8h0.2h0.1v-3.4c-1.2-0.5-2.5-0.8-3.9-0.8c-0.7,0-1.3,0.1-1.9,0.3
		c-0.5,0.2-1,0.5-1.4,0.9c-0.4,0.4-0.7,0.8-0.9,1.2c-0.2,0.5-0.3,0.9-0.3,1.4c0,0.6,0.1,1.1,0.3,1.5c0.2,0.4,0.4,0.8,0.7,1
		c0.3,0.3,0.6,0.5,1,0.7c0.4,0.2,0.7,0.3,1.1,0.4c0.4,0.1,0.8,0.2,1.1,0.3c0.4,0.1,0.7,0.2,1,0.4c0.3,0.2,0.5,0.3,0.7,0.6
		c0.2,0.2,0.3,0.5,0.3,0.9c0,0.6-0.2,1.1-0.6,1.5c-0.4,0.3-0.9,0.5-1.7,0.5c-1.2,0-2-0.1-2.5-0.2c-0.1-0.9-0.1-1.4-0.2-1.5
		c-0.1-0.2-0.2-0.3-0.4-0.3h-0.8h-0.2h-0.1v3.1v0.3c1.4,0.5,2.7,0.7,3.9,0.7c0.1,0,0.2,0,0.3,0c0.7,0,1.4-0.1,2-0.3
		c0.6-0.2,1.1-0.5,1.5-0.9c0.4-0.4,0.7-0.9,0.9-1.4c0.2-0.5,0.3-1.1,0.3-1.7C290.9,276.7,290.8,276.3,290.7,275.9z M172,247.6
		c0.4-0.1,0.6-0.3,0.6-0.7v-1.3h-0.4h-0.4h-0.9h-1.4h-3.1v1.3c0,0.4,0.2,0.6,0.6,0.7c0,0,0.1,0,0.1,0c0,0,0.1,0,0.2,0.1
		c0.1,0,0.2,0.1,0.3,0.1l-2.2,4c-0.2,0.3-0.3,0.6-0.4,0.9c-0.1,0.3-0.2,0.6-0.3,0.9c-0.1-0.3-0.2-0.6-0.4-0.9
		c-0.1-0.3-0.3-0.6-0.5-0.9l-2.2-4c0.1,0,0.2-0.1,0.3-0.1c0.1,0,0.2,0,0.2-0.1c0,0,0.1,0,0.1,0c0.4-0.1,0.6-0.3,0.6-0.7v-1.3h-3.1
		h-1.3h-0.9h-0.4h-0.4v1.3c0,0.4,0.2,0.6,0.6,0.7c0,0,0.1,0,0.1,0c0.1,0,0.2,0,0.3,0.1c0.2,0,0.4,0.1,0.7,0.1l4.6,7.8v4.1
		c-0.3,0.1-0.5,0.1-0.7,0.1c-0.2,0-0.3,0-0.3,0.1c-0.1,0-0.1,0-0.1,0c-0.4,0.1-0.6,0.3-0.6,0.7v1.3h1.7h3.1h1.7v-1.3
		c0-0.4-0.2-0.6-0.6-0.7c0,0-0.1,0-0.1,0c-0.1,0-0.2,0-0.3-0.1c-0.2,0-0.4-0.1-0.7-0.1v-4.1l4.6-7.8c0.3-0.1,0.5-0.1,0.7-0.1
		c0.2,0,0.3-0.1,0.3-0.1C171.9,247.6,171.9,247.6,172,247.6z M190,262v-1.6v-0.8v-1.9h-0.1h-0.3h-0.9c-0.3,0-0.5,0.1-0.5,0.4
		c0,0.2-0.1,0.7-0.2,1.5h-5.3v-4.6h5.6v-2.4h-5.6V248h5.3c0.1,0.8,0.1,1.3,0.2,1.5c0.1,0.3,0.2,0.4,0.5,0.4h0.9h0.3h0.1V248v-0.9
		v-1.6h-10.4h-1.7v1.3c0,0.4,0.2,0.6,0.6,0.7c0,0,0.1,0,0.1,0c0.1,0,0.2,0,0.3,0.1c0.2,0,0.4,0.1,0.7,0.1v11.9
		c-0.3,0.1-0.5,0.1-0.7,0.1c-0.2,0-0.3,0-0.3,0.1c-0.1,0-0.1,0-0.1,0c-0.4,0.1-0.6,0.3-0.6,0.7v1.3h1.7H190z M213.1,262h-0.8h-1.8
		h-0.4h-0.2h-2.4v-1.2c0-0.3,0.2-0.5,0.5-0.6c0.1,0,0.2-0.1,0.5-0.2l-0.1-0.2l-0.8-2.2H201l-0.9,2.3L200,260
		c0.2,0.1,0.4,0.2,0.5,0.2c0.3,0.1,0.5,0.3,0.5,0.6v1.2h-2.4h-0.2H198h-1.8h-0.8v-1.2c0-0.3,0.2-0.5,0.5-0.6c0.1,0,0.5-0.2,1.2-0.5
		l5.6-14.2h3.1l5.6,14.2c0.7,0.3,1.1,0.5,1.2,0.5c0.3,0.1,0.5,0.3,0.5,0.6V262z M206.7,255.4l-1.9-5.1c-0.1-0.2-0.2-0.5-0.3-0.9
		c-0.1-0.3-0.2-0.7-0.3-1.1c-0.1,0.4-0.2,0.8-0.3,1.1c-0.1,0.3-0.2,0.6-0.3,0.9l-1.9,5.1H206.7z M220.4,262h-1.7v-1.3
		c0-0.4,0.2-0.6,0.6-0.7c0,0,0.1,0,0.1,0c0.1,0,0.2,0,0.3-0.1c0.2,0,0.4-0.1,0.7-0.1v-11.9c-0.3,0-0.5-0.1-0.7-0.1
		c-0.2,0-0.3-0.1-0.3-0.1c-0.1,0-0.1,0-0.1,0c-0.4-0.1-0.6-0.3-0.6-0.7v-1.3h1.7h4.9c1.1,0,2.1,0.1,2.9,0.3c0.8,0.2,1.5,0.6,2,1
		c0.5,0.4,0.9,0.9,1.1,1.5c0.2,0.6,0.4,1.2,0.4,1.9c0,0.6-0.1,1.1-0.2,1.6c-0.2,0.5-0.4,0.9-0.7,1.3c-0.3,0.4-0.7,0.8-1.1,1.1
		c-0.5,0.3-1,0.5-1.5,0.7c0.4,0.2,0.7,0.5,1,0.9l2.6,3.8c0.3,0.1,0.5,0.1,0.7,0.1c0.2,0,0.3,0.1,0.4,0.1c0.1,0,0.1,0,0.2,0
		c0.4,0.1,0.6,0.3,0.6,0.7v1.3H233h-1.4h-1.3c-0.3,0-0.5-0.1-0.7-0.2c-0.2-0.1-0.3-0.3-0.5-0.5l-3.5-5.3c-0.1-0.2-0.3-0.3-0.4-0.4
		c-0.2-0.1-0.4-0.1-0.7-0.1h-1.1v4.2c0.3,0.1,0.5,0.1,0.7,0.1c0.2,0,0.3,0.1,0.3,0.1c0.1,0,0.1,0,0.1,0c0.4,0.1,0.6,0.3,0.6,0.7v1.3
		h-1.7H220.4z M223.4,253.3h1.8c0.6,0,1.1-0.1,1.5-0.2c0.4-0.1,0.8-0.3,1.1-0.6c0.3-0.3,0.5-0.6,0.6-0.9c0.1-0.3,0.2-0.7,0.2-1.1
		c0-0.8-0.3-1.5-0.8-1.9c-0.5-0.4-1.4-0.7-2.5-0.7h-1.8V253.3z M264.5,250.4c0.4,1,0.6,2.1,0.6,3.3c0,1.2-0.2,2.3-0.6,3.3
		c-0.4,1-1,1.9-1.7,2.7c-0.7,0.8-1.6,1.3-2.6,1.8c-1,0.4-2.2,0.6-3.4,0.6c-1.2,0-2.4-0.2-3.4-0.6c-1-0.4-1.9-1-2.6-1.8
		c-0.7-0.7-1.3-1.6-1.7-2.7c-0.4-1-0.6-2.1-0.6-3.3c0-1.2,0.2-2.3,0.6-3.3c0.4-1,1-1.9,1.7-2.7c0.7-0.7,1.6-1.3,2.6-1.8
		c1-0.4,2.2-0.6,3.4-0.6c1.2,0,2.4,0.2,3.4,0.6c1,0.4,1.9,1,2.6,1.8C263.5,248.5,264.1,249.4,264.5,250.4z M261.9,253.7
		c0-0.9-0.1-1.7-0.4-2.4c-0.2-0.7-0.6-1.3-1-1.8c-0.4-0.5-1-0.9-1.6-1.1c-0.6-0.3-1.4-0.4-2.2-0.4c-0.8,0-1.5,0.1-2.2,0.4
		c-0.6,0.3-1.2,0.6-1.6,1.1c-0.5,0.5-0.8,1.1-1,1.8c-0.2,0.7-0.4,1.5-0.4,2.4c0,0.9,0.1,1.7,0.4,2.4c0.2,0.7,0.6,1.3,1,1.8
		c0.5,0.5,1,0.9,1.6,1.1c0.6,0.3,1.4,0.4,2.2,0.4c0.8,0,1.5-0.1,2.2-0.4c0.6-0.3,1.2-0.6,1.6-1.1c0.4-0.5,0.8-1.1,1-1.8
		C261.8,255.5,261.9,254.6,261.9,253.7z M283,249.8L283,249.8l0.1-2.2v-0.5v-1.6h-0.6H282h-9.9h-1.7v1.3c0,0.4,0.2,0.6,0.6,0.7
		c0,0,0.1,0,0.1,0c0.1,0,0.2,0,0.3,0.1c0.2,0,0.4,0.1,0.7,0.1v11.9c-0.3,0.1-0.5,0.1-0.7,0.1c-0.2,0-0.3,0-0.3,0.1
		c-0.1,0-0.1,0-0.1,0c-0.4,0.1-0.6,0.3-0.6,0.7v1.3h1.7h3.1h1.7v-1.3c0-0.4-0.2-0.6-0.6-0.7c0,0-0.1,0-0.1,0c-0.1,0-0.2,0-0.3-0.1
		c-0.2,0-0.4-0.1-0.7-0.1v-4.4h5.7v-2.4h-5.7V248h5.9c0.1,0.8,0.1,1.3,0.2,1.5c0.1,0.3,0.2,0.4,0.5,0.4h0.9H283z M133.2,247.1h0.5
		c0.1,0,0.2-0.1,0.3-0.2c0-0.1,0-0.2,0.1-0.5h1.7v5.8c-0.1,0-0.3,0-0.3,0.1c-0.1,0-0.1,0-0.2,0c0,0-0.1,0-0.1,0
		c-0.2,0-0.3,0.2-0.3,0.4v0.7h0.9h1.5h0.9v-0.7c0-0.2-0.1-0.3-0.3-0.4c0,0,0,0-0.1,0c0,0-0.1,0-0.2,0c-0.1,0-0.2,0-0.3-0.1v-5.8h1.7
		c0,0.2,0,0.4,0.1,0.5c0,0.1,0.1,0.2,0.3,0.2h0.5h0.1h0v-1.9h-0.2h0h-6.4h0H133v1.9h0H133.2z M146.7,252.3c-0.1,0-0.1,0-0.2,0
		c0,0-0.1,0-0.1,0c-0.2,0-0.3,0.2-0.3,0.4v0.7h0.9h1.5h0.9v-0.7c0-0.2-0.1-0.3-0.3-0.4c0,0,0,0-0.1,0c0,0-0.1,0-0.2,0
		c-0.1,0-0.2,0-0.3-0.1v-5.9c0.1,0,0.3,0,0.3-0.1c0.1,0,0.1,0,0.2,0c0,0,0.1,0,0.1,0c0.2,0,0.3-0.2,0.3-0.4v-0.7h-0.9H147h-0.9v0.7
		c0,0.2,0.1,0.3,0.3,0.4c0,0,0,0,0.1,0c0,0,0.1,0,0.2,0c0.1,0,0.2,0,0.3,0.1v2.4h-3.8v-2.4c0.1,0,0.3,0,0.3-0.1c0.1,0,0.1,0,0.2,0
		c0,0,0.1,0,0.1,0c0.2,0,0.3-0.2,0.3-0.4v-0.7h-0.9h-1.5h-0.9v0.7c0,0.2,0.1,0.3,0.3,0.4c0,0,0,0,0.1,0c0,0,0.1,0,0.2,0
		c0.1,0,0.2,0,0.3,0.1v5.9c-0.1,0-0.3,0-0.3,0.1c-0.1,0-0.1,0-0.2,0c0,0-0.1,0-0.1,0c-0.2,0-0.3,0.2-0.3,0.4v0.7h0.9h1.5h0.9v-0.7
		c0-0.2-0.1-0.3-0.3-0.4c0,0,0,0-0.1,0c0,0-0.1,0-0.2,0c-0.1,0-0.2,0-0.3-0.1v-2.4h3.8v2.4C146.9,252.2,146.8,252.2,146.7,252.3z
		 M97.2,267.5h4.5v3.5c0,0.3-0.1,0.6-0.3,0.8c-0.2,0.2-0.5,0.4-0.9,0.4h-3.2v8.6h-5.3v-8.6H77c-0.4,0-0.8-0.1-1.1-0.4
		c-0.3-0.2-0.5-0.6-0.6-1l-0.6-3l16.8-22.4h5.7V267.5z M92.1,252.3l-11,15.2h10.8v-11.6c0-0.5,0-1.1,0-1.7
		C92,253.6,92,252.9,92.1,252.3z M128.5,255c0.7,2.3,1,4.9,1,8c0,3.1-0.3,5.8-1,8.1c-0.7,2.3-1.6,4.2-2.7,5.6
		c-1.2,1.5-2.6,2.6-4.2,3.3c-1.6,0.7-3.3,1.1-5.1,1.1c-1.9,0-3.6-0.3-5.1-1.1c-1.6-0.7-2.9-1.9-4.1-3.3c-1.2-1.5-2.1-3.4-2.7-5.6
		c-0.6-2.3-1-5-1-8.1c0-3.1,0.3-5.8,1-8c0.6-2.3,1.6-4.2,2.7-5.6c1.2-1.5,2.5-2.6,4.1-3.3c1.6-0.7,3.3-1.1,5.1-1.1
		c1.9,0,3.6,0.3,5.1,1.1c1.6,0.7,3,1.9,4.2,3.3C126.9,250.9,127.8,252.8,128.5,255z M123.2,263.1c0-2.5-0.1-4.7-0.5-6.4
		c-0.4-1.7-0.9-3-1.5-4c-0.6-1-1.3-1.7-2.2-2.1c-0.8-0.4-1.7-0.6-2.5-0.6c-0.9,0-1.7,0.2-2.5,0.6c-0.8,0.4-1.5,1.1-2.2,2.1
		c-0.6,1-1.1,2.4-1.5,4c-0.4,1.7-0.6,3.8-0.6,6.4c0,2.5,0.2,4.7,0.6,6.4c0.4,1.7,0.8,3,1.5,4c0.6,1,1.4,1.7,2.2,2.1
		c0.8,0.4,1.6,0.6,2.5,0.6c0.9,0,1.7-0.2,2.5-0.6c0.8-0.4,1.5-1.1,2.2-2.1c0.6-1,1.1-2.4,1.5-4.1C123,267.8,123.2,265.6,123.2,263.1
		z"/>
	<path class="st10" d="M290.1,217.3v5.5h-5.1l5.2-7.2c0,0.3,0,0.6-0.1,0.9C290.1,216.7,290.1,217,290.1,217.3 M292.6,222.8v-10.5
		h-2.7l-8,10.7l0.3,1.4c0,0.2,0.1,0.3,0.3,0.5c0.1,0.1,0.3,0.2,0.5,0.2h7.1v4.1h2.5V225h1.5c0.2,0,0.3-0.1,0.4-0.2
		c0.1-0.1,0.2-0.2,0.2-0.4v-1.7H292.6z M280,226.6V225h-1.2c-0.3,0-0.5,0.1-0.5,0.4c0,0.1,0,0.4-0.1,1h-3.7c-0.3,0-0.7,0-1,0.1
		c-0.3,0.1-0.7,0.1-1.1,0.3l3.8-3.9c0.4-0.5,0.9-0.9,1.3-1.4c0.4-0.4,0.8-0.9,1.1-1.4s0.5-1,0.7-1.5c0.2-0.5,0.3-1.1,0.3-1.7
		c0-0.7-0.1-1.4-0.4-2c-0.3-0.6-0.6-1.1-1.1-1.5c-0.5-0.4-1-0.7-1.6-1c-0.7-0.2-1.4-0.3-2.1-0.3c-0.7,0-1.4,0.1-2.1,0.3
		c-0.7,0.2-1.2,0.5-1.7,0.9c-0.5,0.4-0.9,0.9-1.2,1.5c-0.3,0.6-0.6,1.3-0.7,2.1l1.5,0.3c0.1,0,0.3,0,0.4,0c0.3,0,0.5-0.1,0.7-0.2
		c0.2-0.1,0.3-0.3,0.4-0.6c0.2-0.6,0.5-1,0.9-1.4c0.4-0.3,1-0.5,1.7-0.5c0.4,0,0.7,0.1,1,0.2c0.3,0.1,0.6,0.3,0.8,0.5
		c0.2,0.2,0.4,0.5,0.5,0.8c0.1,0.3,0.2,0.7,0.2,1.1c0,0.4,0,0.9-0.2,1.3c-0.1,0.4-0.3,0.8-0.5,1.2c-0.2,0.4-0.5,0.8-0.8,1.2
		c-0.3,0.4-0.7,0.8-1.2,1.2l-5.1,5.1c-0.2,0.2-0.3,0.4-0.4,0.6c-0.1,0.2-0.1,0.4-0.1,0.6v1H279h0.7h0.3V226.6z M263.2,220.7
		c0,1.2-0.1,2.2-0.3,3c-0.2,0.8-0.4,1.5-0.7,1.9c-0.3,0.5-0.6,0.8-1,1c-0.4,0.2-0.8,0.3-1.2,0.3c-0.4,0-0.8-0.1-1.2-0.3
		c-0.4-0.2-0.7-0.5-1-1c-0.3-0.5-0.5-1.1-0.7-1.9c-0.2-0.8-0.3-1.8-0.3-3c0-1.2,0.1-2.2,0.3-3c0.2-0.8,0.4-1.4,0.7-1.9
		c0.3-0.5,0.7-0.8,1-1c0.4-0.2,0.8-0.3,1.2-0.3c0.4,0,0.8,0.1,1.2,0.3c0.4,0.2,0.7,0.5,1,1c0.3,0.5,0.5,1.1,0.7,1.9
		C263.2,218.5,263.2,219.5,263.2,220.7z M266.2,220.7c0-1.5-0.1-2.7-0.5-3.8c-0.3-1.1-0.7-2-1.3-2.7c-0.6-0.7-1.2-1.2-2-1.6
		c-0.7-0.3-1.6-0.5-2.4-0.5c-0.9,0-1.7,0.2-2.4,0.5c-0.7,0.3-1.4,0.9-1.9,1.6c-0.6,0.7-1,1.6-1.3,2.7c-0.3,1.1-0.5,2.4-0.5,3.8
		c0,1.5,0.2,2.8,0.5,3.8c0.3,1.1,0.7,2,1.3,2.7c0.6,0.7,1.2,1.2,1.9,1.6c0.7,0.3,1.6,0.5,2.4,0.5c0.9,0,1.7-0.2,2.4-0.5
		c0.7-0.3,1.4-0.9,2-1.6c0.6-0.7,1-1.6,1.3-2.7C266.1,223.5,266.2,222.2,266.2,220.7z M251.9,226.6V225h-1.2c-0.3,0-0.5,0.1-0.5,0.4
		c0,0.1,0,0.4-0.1,1h-3.7c-0.3,0-0.7,0-1,0.1c-0.3,0.1-0.7,0.1-1.1,0.3l3.8-3.9c0.4-0.5,0.9-0.9,1.3-1.4c0.4-0.4,0.8-0.9,1.1-1.4
		c0.3-0.5,0.5-1,0.7-1.5c0.2-0.5,0.3-1.1,0.3-1.7c0-0.7-0.1-1.4-0.4-2c-0.3-0.6-0.6-1.1-1.1-1.5c-0.5-0.4-1-0.7-1.6-1
		c-0.7-0.2-1.4-0.3-2.1-0.3c-0.7,0-1.4,0.1-2.1,0.3c-0.7,0.2-1.2,0.5-1.7,0.9c-0.5,0.4-0.9,0.9-1.2,1.5c-0.3,0.6-0.6,1.3-0.7,2.1
		l1.5,0.3c0.1,0,0.3,0,0.4,0c0.3,0,0.5-0.1,0.7-0.2c0.2-0.1,0.3-0.3,0.4-0.6c0.2-0.6,0.5-1,0.9-1.4c0.4-0.3,1-0.5,1.7-0.5
		c0.4,0,0.7,0.1,1,0.2c0.3,0.1,0.6,0.3,0.8,0.5c0.2,0.2,0.4,0.5,0.5,0.8c0.1,0.3,0.2,0.7,0.2,1.1c0,0.4,0,0.9-0.2,1.3
		c-0.1,0.4-0.3,0.8-0.5,1.2c-0.2,0.4-0.5,0.8-0.8,1.2c-0.3,0.4-0.7,0.8-1.2,1.2l-5.1,5.1c-0.2,0.2-0.3,0.4-0.4,0.6
		c-0.1,0.2-0.1,0.4-0.1,0.6v1H251h0.7h0.3V226.6z"/>
	<path class="st10" d="M220.9,220.8c0,1.2-0.1,2.2-0.3,3c-0.2,0.8-0.4,1.5-0.7,1.9c-0.3,0.5-0.6,0.8-1,1c-0.4,0.2-0.8,0.3-1.2,0.3
		c-0.4,0-0.8-0.1-1.2-0.3c-0.4-0.2-0.7-0.5-1-1c-0.3-0.5-0.5-1.1-0.7-1.9c-0.2-0.8-0.3-1.8-0.3-3c0-1.2,0.1-2.2,0.3-3
		c0.2-0.8,0.4-1.4,0.7-1.9c0.3-0.5,0.7-0.8,1-1c0.4-0.2,0.8-0.3,1.2-0.3c0.4,0,0.8,0.1,1.2,0.3c0.4,0.2,0.7,0.5,1,1
		c0.3,0.5,0.5,1.1,0.7,1.9C220.8,218.5,220.9,219.6,220.9,220.8 M223.9,220.8c0-1.5-0.1-2.7-0.5-3.8c-0.3-1.1-0.7-2-1.3-2.7
		c-0.6-0.7-1.2-1.2-2-1.6c-0.7-0.3-1.6-0.5-2.4-0.5c-0.9,0-1.7,0.2-2.4,0.5c-0.7,0.3-1.4,0.9-1.9,1.6c-0.6,0.7-1,1.6-1.3,2.7
		c-0.3,1.1-0.5,2.4-0.5,3.8c0,1.5,0.2,2.8,0.5,3.8c0.3,1.1,0.7,2,1.3,2.7c0.6,0.7,1.2,1.2,1.9,1.6c0.7,0.3,1.6,0.5,2.4,0.5
		c0.9,0,1.7-0.2,2.4-0.5c0.7-0.3,1.4-0.9,2-1.6c0.6-0.7,1-1.6,1.3-2.7C223.7,223.6,223.9,222.2,223.9,220.8z M209.1,227.3
		c-0.1,0-1-0.1-2.6-0.2v-14.7h-2.4l-5.1,4.4l0.9,1.2c0.1,0.1,0.1,0.2,0.3,0.2c0.1,0.1,0.3,0.1,0.4,0.1c0.1,0,0.2,0,0.3,0
		c0.1,0,0.2-0.1,0.3-0.2l2.4-2c0,0.4,0,0.8,0,1.2v9.8c-1.8,0.1-2.8,0.2-2.9,0.3c-0.3,0.1-0.5,0.3-0.5,0.6v1.3h4.6h0.2h4.6v-1.3
		C209.6,227.5,209.4,227.3,209.1,227.3z"/>
	<path class="st2" d="M178.2,227.7c0,0.3,0,0.5,0.1,0.7c0.1,0.2,0.2,0.4,0.4,0.5c0.2,0.2,0.4,0.3,0.6,0.4c0.2,0.1,0.4,0.1,0.7,0.1
		c0.2,0,0.5,0,0.7-0.1c0.2-0.1,0.4-0.2,0.6-0.4c0.2-0.2,0.3-0.3,0.4-0.5c0.1-0.2,0.1-0.4,0.1-0.7c0-0.2,0-0.5-0.1-0.7
		c-0.1-0.2-0.2-0.4-0.4-0.6c-0.2-0.2-0.3-0.3-0.6-0.4c-0.2-0.1-0.5-0.1-0.7-0.1c-0.3,0-0.5,0-0.7,0.1c-0.2,0.1-0.4,0.2-0.6,0.4
		c-0.2,0.2-0.3,0.3-0.4,0.6C178.2,227.2,178.2,227.4,178.2,227.7 M173,225c-0.1,0.5-0.3,0.9-0.6,1.3c-0.2,0.3-0.5,0.6-0.9,0.7
		c-0.3,0.2-0.7,0.2-1.2,0.2c-0.8,0-1.6-0.1-2.3-0.2v-6.2c0.4-0.5,0.8-0.8,1.2-1.1c0.4-0.3,0.9-0.4,1.5-0.4c0.4,0,0.7,0.1,1,0.2
		c0.3,0.1,0.6,0.3,0.8,0.7c0.2,0.3,0.4,0.7,0.5,1.2c0.1,0.5,0.2,1.1,0.2,1.8C173.1,223.9,173.1,224.5,173,225z M175.8,220.6
		c-0.2-0.7-0.5-1.4-0.9-1.9c-0.4-0.5-0.9-0.9-1.4-1.2c-0.5-0.3-1.1-0.4-1.8-0.4c-0.8,0-1.5,0.1-2.1,0.4c-0.6,0.3-1.1,0.7-1.6,1.2
		V212h-2.9h-1.9v1.4c0,0.4,0.2,0.6,0.6,0.7c0,0,0.1,0,0.2,0c0.1,0,0.2,0,0.4,0.1c0.2,0,0.4,0.1,0.7,0.1v10.8v3.7
		c2.2,0.4,4.1,0.7,5.8,0.7c0.8,0,1.5-0.1,2.1-0.5c0.6-0.3,1.2-0.7,1.6-1.3c0.4-0.6,0.8-1.2,1-2c0.2-0.8,0.4-1.6,0.4-2.5
		C176.1,222.2,176,221.4,175.8,220.6z M156.7,219.2c0.4,0,0.8,0.1,1.1,0.2c0.3,0.1,0.6,0.3,0.8,0.6c0.2,0.3,0.4,0.5,0.5,0.9
		c0.1,0.3,0.2,0.7,0.2,1h-5.4c0.1-0.9,0.4-1.5,0.9-2C155.2,219.4,155.9,219.2,156.7,219.2z M156.7,217.1c-0.9,0-1.7,0.2-2.4,0.5
		c-0.7,0.3-1.3,0.7-1.8,1.3c-0.5,0.5-0.9,1.2-1.1,1.9c-0.3,0.7-0.4,1.5-0.4,2.3c0,1,0.1,2,0.4,2.8c0.3,0.8,0.7,1.5,1.3,2
		c0.5,0.5,1.1,1,1.9,1.2c0.7,0.3,1.5,0.4,2.3,0.4c0.4,0,0.9,0,1.3-0.1c0.4-0.1,0.9-0.2,1.3-0.3c0.4-0.1,0.8-0.3,1.2-0.6
		c0.4-0.3,0.7-0.6,1.1-1l-0.8-1c-0.1-0.1-0.1-0.1-0.2-0.2c-0.1,0-0.2-0.1-0.3-0.1c-0.2,0-0.3,0-0.5,0.2c-0.2,0.1-0.4,0.2-0.7,0.3
		c-0.3,0.1-0.5,0.3-0.9,0.4c-0.3,0.1-0.7,0.2-1.2,0.2c-1,0-1.7-0.3-2.3-0.9c-0.6-0.6-0.9-1.5-1-2.7h7.4c0.1,0,0.2,0,0.3,0
		c0.1,0,0.2-0.1,0.2-0.2c0-0.1,0.1-0.2,0.1-0.3c0-0.1,0-0.3,0-0.6c0-0.9-0.1-1.6-0.4-2.3c-0.3-0.7-0.6-1.2-1.1-1.7
		c-0.5-0.5-1-0.8-1.6-1.1C158.1,217.3,157.4,217.1,156.7,217.1z M149.3,212.4h-0.5h-10.1h-1.8v1.4c0,0.4,0.2,0.6,0.6,0.7
		c0,0,0.1,0,0.1,0c0.1,0,0.2,0,0.3,0.1c0.2,0,0.4,0.1,0.7,0.1V227c-0.3,0-0.5,0.1-0.7,0.1c-0.2,0-0.3,0.1-0.3,0.1
		c-0.1,0-0.1,0-0.1,0c-0.4,0.1-0.6,0.3-0.6,0.7v1.4h1.8h3.1h1.8v-1.4c0-0.4-0.2-0.6-0.6-0.7c0,0-0.1,0-0.1,0c-0.1,0-0.2,0-0.3-0.1
		c-0.2,0-0.4-0.1-0.7-0.1v-4.6h5.9v-2.5h-5.9v-5h6c0.1,0.8,0.1,1.3,0.2,1.5c0.1,0.3,0.2,0.4,0.5,0.4h1h0.3h0.1v-2.3v-0.5v-1.6H149.3
		z"/>
	<path class="st2" d="M116.6,227.5c0,0.3,0,0.5,0.1,0.7c0.1,0.2,0.2,0.4,0.4,0.5c0.2,0.2,0.4,0.3,0.6,0.4c0.2,0.1,0.4,0.1,0.7,0.1
		c0.2,0,0.5,0,0.7-0.1c0.2-0.1,0.4-0.2,0.6-0.4c0.2-0.2,0.3-0.3,0.4-0.5c0.1-0.2,0.1-0.4,0.1-0.7c0-0.2,0-0.5-0.1-0.7
		c-0.1-0.2-0.2-0.4-0.4-0.6c-0.2-0.2-0.3-0.3-0.6-0.4c-0.2-0.1-0.5-0.1-0.7-0.1c-0.3,0-0.5,0-0.7,0.1c-0.2,0.1-0.4,0.2-0.6,0.4
		c-0.2,0.2-0.3,0.3-0.4,0.6C116.6,227,116.6,227.2,116.6,227.5 M111.5,229.2c0.6,0,1.1-0.1,1.7-0.3c0.5-0.2,1-0.4,1.4-0.8l-0.9-1.4
		c-0.1-0.1-0.1-0.1-0.2-0.2c0,0-0.1,0-0.2,0c-0.1,0-0.1,0-0.2,0c-0.1,0-0.2,0.1-0.3,0.1c-0.1,0-0.2,0.1-0.3,0.1c-0.1,0-0.3,0-0.4,0
		c-0.3,0-0.6-0.1-0.7-0.3c-0.2-0.2-0.3-0.5-0.3-0.9v-6.5h3.1v-2h-3.1v-3.8h-1.5c-0.2,0-0.3,0-0.4,0.1c-0.1,0.1-0.2,0.2-0.2,0.3
		l-0.6,3.3l-1.9,0.3v1.2c0,0.2,0.1,0.3,0.2,0.4c0.1,0.1,0.2,0.2,0.4,0.2h1.2v6.7c0,1,0.3,1.8,0.8,2.4
		C109.6,228.9,110.5,229.2,111.5,229.2z M100.4,226c-0.2,0.2-0.4,0.4-0.6,0.6c-0.2,0.2-0.4,0.3-0.6,0.4c-0.2,0.1-0.5,0.2-0.7,0.3
		c-0.3,0-0.5,0.1-0.8,0.1c-0.5,0-0.9-0.1-1.2-0.3c-0.3-0.2-0.4-0.6-0.4-1.1c0-0.3,0.1-0.5,0.2-0.7c0.1-0.2,0.4-0.4,0.7-0.6
		c0.3-0.2,0.8-0.3,1.4-0.4c0.6-0.1,1.3-0.2,2.1-0.2V226z M104.1,227c0,0-0.1,0-0.3,0c-0.1,0-0.4-0.1-0.6-0.1v-5.3
		c0-0.7-0.1-1.3-0.3-1.9c-0.2-0.6-0.5-1-0.9-1.5c-0.4-0.4-0.8-0.7-1.4-1c-0.6-0.2-1.2-0.3-1.9-0.3c-1.9,0-3.6,0.7-5,1.9l0.5,0.9
		c0.1,0.1,0.2,0.3,0.3,0.4c0.1,0.1,0.3,0.1,0.5,0.1c0.2,0,0.4,0,0.6-0.2c0.2-0.1,0.4-0.2,0.6-0.3c0.2-0.1,0.5-0.3,0.8-0.4
		c0.3-0.1,0.7-0.2,1.2-0.2c0.7,0,1.1,0.2,1.5,0.6c0.3,0.4,0.5,1,0.5,1.8v0.7c-1.3,0-2.5,0.1-3.4,0.3c-0.9,0.2-1.6,0.5-2.2,0.9
		c-0.6,0.3-1,0.7-1.2,1.2c-0.2,0.4-0.3,0.9-0.3,1.4c0,0.5,0.1,1,0.3,1.4c0.2,0.4,0.4,0.7,0.7,1c0.3,0.3,0.7,0.5,1.1,0.6
		c0.4,0.1,0.9,0.2,1.4,0.2c0.4,0,0.8,0,1.2-0.1c0.3-0.1,0.7-0.2,1-0.3c0.3-0.1,0.6-0.3,0.9-0.5c0.3-0.2,0.6-0.4,0.9-0.7l0.3,0.8
		c0.1,0.3,0.2,0.4,0.3,0.5c0.2,0.1,0.4,0.1,0.7,0.1h1h0.3h1.5v-1.4C104.6,227.3,104.5,227,104.1,227z M90.8,222
		c-0.2-0.5-0.5-0.9-0.9-1.2c-0.4-0.3-0.8-0.6-1.3-0.8c-0.5-0.2-0.9-0.4-1.4-0.6c-0.5-0.2-1-0.3-1.4-0.5c-0.5-0.1-0.9-0.3-1.3-0.5
		c-0.4-0.2-0.7-0.4-0.9-0.7c-0.2-0.3-0.3-0.6-0.3-1c0-0.3,0-0.6,0.2-0.9c0.1-0.3,0.3-0.5,0.5-0.7c0.2-0.2,0.5-0.3,0.8-0.4
		c0.3-0.1,0.7-0.1,1.1-0.1c1.2,0,2.1,0.1,2.7,0.4c0.1,1,0.2,1.7,0.2,1.9c0.1,0.3,0.2,0.4,0.5,0.4h1h0.3h0.1V213
		c-1.6-0.6-3.2-1-4.8-1c-0.9,0-1.7,0.1-2.4,0.4c-0.7,0.3-1.3,0.6-1.7,1.1c-0.5,0.4-0.8,1-1.1,1.6c-0.3,0.6-0.4,1.2-0.4,1.8
		c0,0.8,0.1,1.4,0.3,1.9c0.2,0.5,0.5,1,0.9,1.3c0.4,0.3,0.8,0.7,1.3,0.9c0.5,0.2,0.9,0.4,1.4,0.6c0.5,0.2,1,0.3,1.4,0.4
		c0.5,0.1,0.9,0.3,1.2,0.5c0.4,0.2,0.7,0.4,0.9,0.7c0.2,0.3,0.3,0.7,0.3,1.1c0,0.8-0.2,1.4-0.7,1.8c-0.5,0.4-1.2,0.6-2.1,0.6
		c-1.4,0-2.5-0.1-3.2-0.3c-0.1-1.1-0.2-1.7-0.2-1.9c-0.1-0.3-0.2-0.4-0.5-0.4h-1h-0.3h-0.1v3.9v0.4c1.7,0.6,3.3,0.9,4.8,0.9h0.3
		c0.9,0,1.7-0.1,2.5-0.4c0.7-0.3,1.3-0.7,1.8-1.2c0.5-0.5,0.9-1.1,1.1-1.7c0.3-0.7,0.4-1.3,0.4-2.1C91.2,223.1,91.1,222.5,90.8,222z
		"/>
</g>
</svg>
