<?xml version="1.0" encoding="iso-8859-1"?>
<!-- Generator: Adobe Illustrator 19.0.0, SVG Export Plug-In . SVG Version: 6.00 Build 0)  -->
<svg version="1.1" fill="#002749" id="Capa_1" xmlns="http://www.w3.org/2000/svg" xmlns:xlink="http://www.w3.org/1999/xlink" x="0px" y="0px"
	 viewBox="0 0 512 512" style="enable-background:new 0 0 512 512;" xml:space="preserve">
<g>
	<g>
		<path d="M452.267,494.933H384v-25.6c0-4.717-3.821-8.533-8.533-8.533H358.4v-85.333c0-4.717-3.821-8.533-8.533-8.533H332.8V179.2
			c0-4.717-3.821-8.533-8.533-8.533h-8.533V102.4c0-4.717-3.821-8.533-8.533-8.533h-17.067V59.733c0-4.717-3.821-8.533-8.533-8.533
			h-17.067V8.533C264.533,3.817,260.712,0,256,0c-4.713,0-8.533,3.817-8.533,8.533V51.2H230.4c-4.713,0-8.533,3.817-8.533,8.533
			v34.133H204.8c-4.713,0-8.533,3.817-8.533,8.533v68.267h-8.533c-4.713,0-8.533,3.817-8.533,8.533v187.733h-17.067
			c-4.713,0-8.533,3.817-8.533,8.533V460.8h-17.067c-4.713,0-8.533,3.817-8.533,8.533v25.6H59.733c-4.713,0-8.533,3.817-8.533,8.533
			c0,4.717,3.821,8.533,8.533,8.533h392.533c4.713,0,8.533-3.817,8.533-8.533C460.8,498.75,456.979,494.933,452.267,494.933z
			 M315.733,187.733v179.2H281.6v-179.2H315.733z M238.933,68.267h34.133v25.6h-34.133V68.267z M213.333,110.933h85.333v59.733
			H281.6v-34.133c0-4.717-3.821-8.533-8.533-8.533h-34.133c-4.713,0-8.533,3.817-8.533,8.533v34.133h-17.067V110.933z
			 M264.533,145.067v221.867h-17.067V145.067H264.533z M196.267,187.733H230.4v179.2h-34.133V187.733z M170.667,384h170.667v76.8
			H307.2v-42.667c0-4.717-3.821-8.533-8.533-8.533s-8.533,3.817-8.533,8.533V460.8h-25.6v-42.667c0-4.717-3.821-8.533-8.533-8.533
			c-4.713,0-8.533,3.817-8.533,8.533V460.8h-25.6v-42.667c0-4.717-3.821-8.533-8.533-8.533c-4.713,0-8.533,3.817-8.533,8.533V460.8
			h-34.133V384z M366.933,494.933H145.067v-17.067h221.867V494.933z"/>
	</g>
</g>
<g>
</g>
<g>
</g>
<g>
</g>
<g>
</g>
<g>
</g>
<g>
</g>
<g>
</g>
<g>
</g>
<g>
</g>
<g>
</g>
<g>
</g>
<g>
</g>
<g>
</g>
<g>
</g>
<g>
</g>
</svg>
