<svg height="512pt" fill="#002749" viewBox="0 0 512 512" width="512pt" xmlns="http://www.w3.org/2000/svg"><path d="m504.5 497h-77.34375v-25.703125c0-17.257813-14.039062-31.296875-31.296875-31.296875h-8.109375c-4.144531 0-7.5 3.359375-7.5 7.5s3.355469 7.5 7.5 7.5h8.109375c8.988281 0 16.296875 7.3125 16.296875 16.296875v25.703125h-117v-25.703125c0-8.984375 7.3125-16.296875 16.296875-16.296875h44.484375c4.140625 0 7.5-3.359375 7.5-7.5 0-2.796875-1.53125-5.234375-3.796875-6.523438v-31.40625c0-.035156 0-.066406 0-.101562v-401.96875c0-4.140625-3.359375-7.5-7.5-7.5h-96.140625c-4.144531 0-7.5 3.359375-7.5 7.5s3.355469 7.5 7.5 7.5h88.640625v25h-145v-25h23.859375c4.144531 0 7.5-3.359375 7.5-7.5s-3.355469-7.5-7.5-7.5h-31.359375c-4.144531 0-7.5 3.359375-7.5 7.5v120c0 4.140625 3.355469 7.5 7.5 7.5h124.332031l-45.195312 107.96875c-1.347656.402344-2.664063.9375-3.9375 1.597656l-44.902344 23.289063-34.660156-32.78125c-2.460938-2.324219-5.3125-3.984375-8.332032-4.988281 4.382813-5.539063 7.003907-12.539063 7.003907-20.136719 0-3.871094-.660157-7.625-1.949219-11.148438 1.890625-1.773437 3.1875-4.179687 3.535156-6.902343l3.324219-26c.417969-3.257813-.589844-6.546876-2.769531-9.019532-2.195313-2.496094-5.371094-3.929687-8.710938-3.929687h-51.851562c-3.355469 0-6.539063 1.441406-8.738282 3.957031-2.175781 2.492188-3.175781 5.796875-2.734374 9.066406l3.496093 26c.351563 2.625 1.59375 4.953125 3.398438 6.699219-1.320313 3.5625-2 7.359375-2 11.277344 0 9.667969 4.242187 18.359375 10.964843 24.320312-9.648437 6.789063-15.964843 18.011719-15.964843 30.679688v22.550781c0 4.140625 3.359375 7.5 7.5 7.5 4.144531 0 7.5-3.359375 7.5-7.5v-22.550781c0-11.621094 8.859375-21.214844 20.183593-22.378907-3.59375 8.414063-1.804687 18.554688 5.222657 25.199219l19.597656 18.53125v70.800781h-45v-37.601562c0-4.140625-3.359375-7.5-7.5-7.5-4.144531 0-7.5 3.359375-7.5 7.5v41.101562c0 6.339844 5.15625 11.5 11.5 11.5h3.726563v117.398438c0 2.628906.453124 5.152344 1.285156 7.5h-125.464844c-4.144531 0-7.5 3.359375-7.5 7.5s3.355469 7.5 7.5 7.5h497c4.144531 0 7.5-3.359375 7.5-7.5s-3.355469-7.5-7.5-7.5zm-159.859375-417h-55.28125c2.527344-3.523438 4.015625-7.84375 4.015625-12.5s-1.488281-8.976562-4.015625-12.5h55.28125zm-72.765625-19c3.582031 0 6.5 2.914062 6.5 6.5s-2.917969 6.5-6.5 6.5c-3.585938 0-6.5-2.914062-6.5-6.5s2.914062-6.5 6.5-6.5zm-17.484375-6c-2.527344 3.523438-4.015625 7.84375-4.015625 12.5s1.488281 8.976562 4.015625 12.5h-54.75v-25zm-54.75 40h145v25c-13.03125 0-126.003906 0-145 0zm145 40v250.8125l-67.339844-95.71875 10.757813-5.578125c11.039062-5.726563 15.339844-19.292969 9.613281-30.335937-2.34375-4.507813-6.050781-8.023438-10.601563-10.097657l45.660157-109.082031zm-168.664063 32.949219-2.429687 19h-39.035156l-2.554688-19zm-39.527343 42c0-2.835938.660156-5.554688 1.933593-8h31.136719c1.269531 2.449219 1.929688 5.164062 1.929688 8 0 9.648437-7.851563 17.5-17.5 17.5-9.648438 0-17.5-7.847657-17.5-17.5zm30.417969 36.320312c2.824218-2.988281 7.585937-3.148437 10.601562-.292969l38.535156 36.441407c2.320313 2.195312 5.773438 2.679687 8.605469 1.210937l49.636719-25.746094c3.660156-1.898437 8.191406-.492187 10.109375 3.203126 1.90625 3.683593.472656 8.203124-3.207031 10.113281-10.511719 5.453125-46.300782 24.015625-59.097657 30.652343-2.832031 1.46875-6.289062.984376-8.605469-1.207031l-24.226562-22.910156c-.078125-.078125-.160156-.15625-.242188-.230469l-21.816406-20.632812c-3.003906-2.839844-3.136718-7.597656-.292968-10.601563zm36.269531 65.273438c6.875 6.496093 17.234375 8.078125 25.820312 3.625l34.90625-18.105469 80.777344 114.820312v28.117188h-33.1875c-17.257813 0-31.296875 14.039062-31.296875 31.296875v25.703125h-74.171875c.832031-2.347656 1.285156-4.871094 1.285156-7.5 0-12.40625-10.09375-22.5-22.5-22.5h-8.089843v-94.898438h3.269531c6.339843 0 11.5-5.160156 11.5-11.5v-60.113281zm-48.957031 185.457031c-4.136719 0-7.5-3.363281-7.5-7.5v-117.398438h15v102.398438c0 4.140625 3.355468 7.5 7.5 7.5h15.589843c4.136719 0 7.5 3.363281 7.5 7.5s-3.363281 7.5-7.5 7.5zm0 0"/></svg>